<?xml version="1.0" encoding="utf-8"?>
<!-- Generator: Adobe Illustrator 27.0.0, SVG Export Plug-In . SVG Version: 6.00 Build 0)  -->
<svg version="1.1" id="Ebene_1" xmlns="http://www.w3.org/2000/svg" xmlns:xlink="http://www.w3.org/1999/xlink" x="0px" y="0px"
	 viewBox="0 0 147.4 39.3" style="enable-background:new 0 0 147.4 39.3;" xml:space="preserve">
<style type="text/css">
	.Grün_x0020_bogenförmig{fill:url(#SVGID_1_);stroke:#FFFFFF;stroke-width:0.25;stroke-miterlimit:1;}
	.st0{fill:#00A1DE;}
	.st1{fill:#E98300;}
	.st2{fill:#868788;}
</style>
<linearGradient id="SVGID_1_" gradientUnits="userSpaceOnUse" x1="-223.6069" y1="463.146" x2="-222.8998" y2="462.4389">
	<stop  offset="0" style="stop-color:#5E9D3B"/>
	<stop  offset="0.9831" style="stop-color:#2B3A24"/>
</linearGradient>
<path class="st0" d="M0.6,0.5h7.5V2H2.4v4.7h5.3v1.5H2.4v6.3H0.6V0.5z"/>
<path class="st0" d="M2.7,14.8H0.3V0.1h8.2v2.1H2.7v4H8v2.1H2.7V14.8L2.7,14.8z M0.9,14.1h1.2V7.8h5.3V6.9H2.1V1.7h5.7V0.8H0.9V14.1
	L0.9,14.1z"/>
<path class="st0" d="M14.1,14.7c-2.7,0-4.8-2-4.8-5.2c0-3.4,2.2-5.3,5-5.3c2.9,0,4.8,2.1,4.8,5.1C19.2,13.1,16.6,14.7,14.1,14.7
	L14.1,14.7z M14.2,13.3c1.7,0,3.1-1.6,3.1-3.9c0-1.7-0.9-3.8-3-3.8c-2.1,0-3.1,2-3.1,3.9C11.2,11.6,12.4,13.3,14.2,13.3L14.2,13.3z"
	/>
<path class="st0" d="M14.2,15L14.2,15c-3,0-5.1-2.3-5.1-5.5c0-3.3,2.2-5.6,5.3-5.6c3,0,5.1,2.2,5.1,5.5C19.5,13.2,16.7,15,14.2,15
	L14.2,15z M14.3,4.5c-2.8,0-4.7,2-4.7,5c0,2.9,1.9,4.9,4.5,4.9h0c2.3,0,4.7-1.6,4.7-5C18.8,6.4,17,4.5,14.3,4.5L14.3,4.5z
	 M14.2,13.6c-1.9,0-3.3-1.8-3.3-4.2c0-2.1,1-4.2,3.4-4.2c2.3,0,3.3,2.2,3.3,4.2C17.6,11.8,16.2,13.6,14.2,13.6L14.2,13.6z M14.3,5.9
	c-1.9,0-2.8,1.8-2.8,3.6c0,2.1,1.1,3.6,2.7,3.6c1.6,0,2.8-1.5,2.8-3.6C17,8.2,16.4,5.9,14.3,5.9L14.3,5.9z"/>
<path class="st0" d="M21.5,7.5c0-1.2,0-2.2-0.1-3.1H23l0.1,2h0.1c0.5-1.4,1.6-2.2,2.8-2.2c0.2,0,0.3,0,0.5,0.1v1.7
	c-0.2,0-0.4,0-0.6,0c-1.3,0-2.2,1-2.5,2.3c0,0.3-0.1,0.6-0.1,0.9v5.4h-1.8L21.5,7.5z"/>
<path class="st0" d="M23.6,14.8h-2.4l0-7.2c0-1.3,0-2.3-0.1-3.1l0-0.3h2.2l0.1,1.2c0.7-1.1,1.9-1.7,3.2-1.4L26.8,4v2.3l-0.3,0
	c-0.2,0-0.4,0-0.6,0c-1.1,0-1.9,0.8-2.1,2.1c0,0.2-0.1,0.5-0.1,0.8V14.8L23.6,14.8z M21.8,14.1H23v-5c0-0.3,0-0.6,0.1-0.9
	c0.3-1.6,1.4-2.6,2.8-2.6c0.1,0,0.2,0,0.3,0V4.5c-0.1,0-0.1,0-0.2,0c-1.1,0-2.1,0.8-2.5,2l-0.1,0.2h-0.5l-0.1-0.3l-0.1-1.7h-1
	c0,0.8,0.1,1.7,0.1,2.8L21.8,14.1L21.8,14.1z"/>
<path class="st0" d="M37,11.7c0,1,0,2,0.1,2.7h-1.6l-0.1-1.6h0c-0.5,0.8-1.5,1.9-3.3,1.9c-1.6,0-3.5-0.9-3.5-4.4V4.4h1.8v5.5
	c0,1.9,0.6,3.2,2.2,3.2c1.2,0,2.1-0.9,2.4-1.7c0.1-0.2,0.2-0.6,0.2-0.9V4.4H37V11.7z"/>
<path class="st0" d="M32,15c-1.1,0-3.8-0.5-3.8-4.7V4.1h2.4v5.9c0,2.9,1.5,2.9,1.9,2.9c1.1,0,1.8-0.8,2.1-1.5
	c0.1-0.2,0.1-0.5,0.1-0.8V4.1h2.4v7.6c0,1.1,0,2,0.1,2.7l0,0.3h-2.2l-0.1-1.1C34.6,14.2,33.6,15,32,15L32,15z M28.9,4.7v5.6
	c0,3.6,2,4.1,3.2,4.1c1.9,0,2.8-1.3,3.1-1.7l0.1-0.2h0.5l0.1,0.3l0.1,1.4h1c0-0.7-0.1-1.4-0.1-2.4v-7h-1.2v5.8
	c0,0.4-0.1,0.8-0.2,1.1c-0.3,0.9-1.3,1.9-2.7,1.9c-1.2,0-2.6-0.6-2.6-3.5V4.7H28.9L28.9,4.7z"/>
<path class="st0" d="M39.6,7.1c0-1.1,0-1.9-0.1-2.7h1.6L41.2,6h0.1c0.6-1,1.5-1.8,3.2-1.8c1.3,0,2.4,0.8,2.8,2h0
	c0.3-0.6,0.7-1,1.1-1.3c0.6-0.5,1.2-0.7,2.2-0.7C52,4.2,54,5,54,8.5v5.9h-1.8V8.8c0-2-0.7-3.1-2.2-3.1c-1.1,0-1.8,0.8-2.2,1.6
	c-0.1,0.3-0.1,0.6-0.1,0.9v6.2h-1.8v-6c0-1.6-0.7-2.8-2.1-2.8c-1.1,0-2,0.9-2.3,1.8c-0.1,0.3-0.1,0.6-0.1,0.9v6.1h-1.8V7.1z"/>
<path class="st0" d="M54.3,14.8h-2.4v-6c0-1.3-0.3-2.8-1.9-2.8c-1,0-1.6,0.8-1.9,1.4C48.1,7.7,48,8,48,8.2v6.5h-2.4V8.4
	c0-0.7-0.2-2.5-1.8-2.5c-1,0-1.7,0.8-2,1.6c-0.1,0.2-0.1,0.5-0.1,0.8v6.4h-2.4V7.1c0-1.1,0-1.9-0.1-2.7l0-0.3l2.2,0l0.1,1.1
	c0.7-0.9,1.7-1.3,3-1.3c1.2,0,2.3,0.6,2.9,1.7c0.3-0.4,0.6-0.7,0.9-0.9c0.7-0.5,1.4-0.8,2.4-0.8c1.8,0,3.6,1.2,3.6,4.7V14.8
	L54.3,14.8z M52.5,14.1h1.2V8.5c0-3.8-2.3-4.1-3-4.1c-0.8,0-1.4,0.2-2,0.6c-0.5,0.3-0.8,0.7-1.1,1.2l-0.1,0.2h-0.4L47,6.3
	c-0.4-1.1-1.4-1.8-2.5-1.8c-1.3,0-2.2,0.6-2.9,1.7l-0.1,0.2H41L40.9,6l-0.1-1.3h-1c0,0.7,0.1,1.5,0.1,2.4v7h1.2V8.4
	c0-0.4,0.1-0.7,0.2-1c0.3-1,1.2-2,2.6-2c1.5,0,2.4,1.2,2.4,3.1v5.7h1.2V8.2c0-0.3,0.1-0.7,0.2-1C48,6.1,49,5.4,50.1,5.4
	c0.9,0,2.5,0.4,2.5,3.4V14.1L52.5,14.1z"/>
<path class="st1" d="M61.4,0.7c0.8-0.2,2.1-0.3,3.3-0.3c1.8,0,3,0.3,3.8,1c0.7,0.5,1.2,1.4,1.2,2.5c0,1.4-0.9,2.6-2.4,3.1V7
	c1.3,0.3,2.9,1.4,2.9,3.5c0,1.2-0.5,2.1-1.2,2.8c-1,0.9-2.5,1.3-4.8,1.3c-1.2,0-2.2-0.1-2.8-0.2V0.7z M63.2,6.4h1.6c1.9,0,3-1,3-2.4
	c0-1.6-1.2-2.3-3.1-2.3c-0.8,0-1.3,0.1-1.6,0.1V6.4z M63.2,13.1c0.4,0.1,0.9,0.1,1.5,0.1c1.9,0,3.6-0.7,3.6-2.7
	c0-1.9-1.6-2.7-3.6-2.7h-1.5V13.1z"/>
<path class="st1" d="M64.2,14.9c-1.4,0-2.4-0.1-2.8-0.2l-0.3,0V0.4l0.2-0.1C62.2,0.2,63.5,0,64.7,0c1.9,0,3.1,0.3,4,1.1
	c0.8,0.6,1.3,1.6,1.3,2.7c0,1.3-0.7,2.4-1.9,3.1c1.2,0.5,2.4,1.7,2.4,3.6c0,1.2-0.4,2.2-1.3,3C68.3,14.4,66.6,14.9,64.2,14.9
	L64.2,14.9z M61.7,14.1c0.5,0.1,1.3,0.1,2.5,0.1c2.2,0,3.7-0.4,4.6-1.2c0.7-0.7,1.1-1.6,1.1-2.6c0-1.9-1.4-2.9-2.6-3.2l-0.2-0.1V6.8
	l0.2-0.1c1.3-0.5,2.2-1.5,2.2-2.8c0-0.9-0.4-1.7-1.1-2.2c-0.8-0.7-1.9-1-3.6-1c-1.1,0-2.2,0.1-3,0.3V14.1L61.7,14.1z M64.8,13.5
	c-0.7,0-1.2,0-1.6-0.1l-0.3,0V7.4h1.8c2.4,0,3.9,1.2,3.9,3C68.7,12.4,67.2,13.5,64.8,13.5L64.8,13.5z M63.6,12.8c0.3,0,0.7,0,1.2,0
	c1.2,0,3.3-0.3,3.3-2.4c0-2.2-2.5-2.4-3.3-2.4h-1.2V12.8L63.6,12.8z M64.9,6.7h-1.9V1.6l0.2-0.1c0.4-0.1,1-0.1,1.7-0.1
	c2.2,0,3.4,0.9,3.4,2.6C68.2,5.6,66.9,6.7,64.9,6.7L64.9,6.7z M63.6,6.1h1.3c1.6,0,2.7-0.8,2.7-2.1c0-1.3-0.9-2-2.7-2
	c-0.5,0-1,0-1.3,0.1V6.1L63.6,6.1z"/>
<path class="st1" d="M83.4,13.8c-0.8,0.3-2.4,0.8-4.3,0.8c-2.1,0-3.9-0.5-5.2-1.8c-1.2-1.2-2-3-2-5.2c0-4.2,2.9-7.2,7.6-7.2
	c1.6,0,2.9,0.4,3.5,0.6l-0.5,1.5c-0.7-0.4-1.7-0.6-3.1-0.6c-3.4,0-5.6,2.1-5.6,5.6c0,3.6,2.1,5.6,5.4,5.6c1.2,0,2-0.2,2.4-0.4V8.6
	h-2.8V7.1h4.6V13.8z"/>
<path class="st1" d="M79,14.9c-2.3,0-4.1-0.6-5.4-1.9c-1.3-1.3-2-3.2-2-5.4C71.6,3,74.7,0,79.4,0c1.7,0,3,0.4,3.6,0.7l0.2,0.1
	l-0.6,2.1l-0.3-0.2c-0.8-0.4-1.8-0.6-3-0.6c-3.3,0-5.3,2-5.3,5.3c0,3.3,1.9,5.3,5.1,5.3c0.9,0,1.6-0.1,2.1-0.3V8.9h-2.8V6.8h5.2V14
	l-0.2,0.1C83,14.3,81.3,14.9,79,14.9L79,14.9z M79.4,0.6c-4.3,0-7.3,2.8-7.3,6.9c0,2,0.7,3.8,1.9,5c1.2,1.2,2.9,1.8,5,1.8
	c1.9,0,3.4-0.5,4-0.7V7.4h-4v0.8h2.8v4.7L81.7,13c-0.5,0.3-1.4,0.4-2.5,0.4c-3.5,0-5.7-2.3-5.7-6c0-3.6,2.3-5.9,5.9-5.9
	c1.1,0,2.1,0.2,2.9,0.5l0.3-0.9C81.9,0.9,80.8,0.6,79.4,0.6L79.4,0.6z"/>
<path class="st1" d="M98.3,8.3c-0.1-2-0.2-4.3-0.2-6h0c-0.5,1.6-1.1,3.4-1.8,5.3l-2.5,6.8h-1.4l-2.3-6.7c-0.7-2-1.2-3.8-1.6-5.4h0
	c0,1.7-0.1,4.1-0.3,6.2l-0.4,6h-1.7l1-14h2.3l2.4,6.8c0.6,1.7,1,3.3,1.4,4.7h0c0.4-1.4,0.9-2.9,1.5-4.7l2.5-6.8h2.3l0.9,14h-1.8
	L98.3,8.3z"/>
<path class="st1" d="M100.8,14.8h-2.4L98,8.3c-0.1-1.3-0.2-2.8-0.2-4.3c-0.4,1.1-0.8,2.3-1.2,3.6l-2.5,7h-1.8l-2.4-6.9
	c-0.4-1.3-0.8-2.5-1.1-3.5c-0.1,1.3-0.1,2.8-0.2,4.2l-0.4,6.3h-2.3l1-14.6h2.8l2.5,7c0.4,1.3,0.8,2.5,1.1,3.7
	c0.3-1.1,0.7-2.3,1.2-3.7l2.6-7h2.8L100.8,14.8L100.8,14.8z M98.9,14.1h1.2L99.3,0.8h-1.8l-2.4,6.6c-0.7,1.9-1.1,3.4-1.5,4.7
	l-0.1,0.2H93L92.9,12c-0.4-1.5-0.8-3-1.4-4.7l-2.3-6.6h-1.8l-0.9,13.4h1.1l0.4-5.7c0.1-2.2,0.2-4.5,0.3-6.2l0-0.3h0.5l0.1,0.2
	c0.4,1.5,0.9,3.2,1.6,5.4l2.2,6.5h0.9L96,7.5c0.7-2,1.3-3.8,1.8-5.3L97.8,2h0.5l0,0.3c0,1.7,0.1,4.2,0.2,6L98.9,14.1L98.9,14.1z"/>
<path class="st2" d="M0.1,21.1C0.5,21,1,21,1.6,21c0.8,0,1.3,0.1,1.7,0.4c0.3,0.2,0.5,0.6,0.5,1.1c0,0.6-0.4,1.1-1,1.3v0
	C3.3,24,4,24.5,4,25.4c0,0.5-0.2,0.9-0.5,1.2C3,27,2.3,27.2,1.4,27.2c-0.5,0-1,0-1.2-0.1V21.1z M0.9,23.6h0.7c0.8,0,1.3-0.4,1.3-1
	c0-0.7-0.5-1-1.3-1c-0.4,0-0.6,0-0.7,0.1V23.6z M0.9,26.5c0.2,0,0.4,0,0.7,0c0.8,0,1.6-0.3,1.6-1.2c0-0.8-0.7-1.2-1.6-1.2H0.9V26.5z
	"/>
<path class="st2" d="M5.5,25.1c0,1.1,0.7,1.5,1.5,1.5c0.6,0,0.9-0.1,1.2-0.2l0.1,0.6C8,27,7.6,27.2,6.9,27.2c-1.3,0-2.1-0.9-2.1-2.2
	c0-1.3,0.8-2.4,2.1-2.4c1.4,0,1.8,1.3,1.8,2.1c0,0.2,0,0.3,0,0.4L5.5,25.1z M7.8,24.5c0-0.5-0.2-1.3-1.1-1.3c-0.8,0-1.2,0.7-1.2,1.3
	H7.8z"/>
<path class="st2" d="M10.5,21.7v1h1.1v0.6h-1.1v2.3c0,0.5,0.2,0.8,0.6,0.8c0.2,0,0.3,0,0.5-0.1l0,0.6c-0.2,0.1-0.4,0.1-0.7,0.1
	c-0.4,0-0.7-0.1-0.9-0.3c-0.2-0.2-0.3-0.6-0.3-1.1v-2.4H9v-0.6h0.7v-0.8L10.5,21.7z"/>
<path class="st2" d="M12.5,24.1c0-0.5,0-1,0-1.4h0.7l0,0.9h0c0.2-0.6,0.7-1,1.2-1c0.1,0,0.1,0,0.2,0v0.7c-0.1,0-0.2,0-0.3,0
	c-0.6,0-1,0.4-1.1,1c0,0.1,0,0.2,0,0.4v2.3h-0.8L12.5,24.1z"/>
<path class="st2" d="M15.9,21.9c-0.3,0-0.5-0.2-0.5-0.5c0-0.3,0.2-0.5,0.5-0.5c0.3,0,0.5,0.2,0.5,0.5C16.4,21.7,16.2,21.9,15.9,21.9
	L15.9,21.9z M15.5,27.1v-4.4h0.8v4.4H15.5z"/>
<path class="st2" d="M18.1,25.1c0,1.1,0.7,1.5,1.5,1.5c0.6,0,0.9-0.1,1.2-0.2l0.1,0.6c-0.3,0.1-0.8,0.3-1.5,0.3
	c-1.3,0-2.1-0.9-2.1-2.2c0-1.3,0.8-2.4,2.1-2.4c1.4,0,1.8,1.3,1.8,2.1c0,0.2,0,0.3,0,0.4L18.1,25.1z M20.4,24.5
	c0-0.5-0.2-1.3-1.1-1.3c-0.8,0-1.2,0.7-1.2,1.3H20.4z"/>
<path class="st2" d="M22.1,20.7h0.8v2.7h0c0.3-0.5,0.8-0.8,1.5-0.8c1.1,0,1.8,0.9,1.8,2.2c0,1.6-1,2.3-2,2.3c-0.6,0-1.1-0.2-1.5-0.8
	h0l0,0.7h-0.7c0-0.3,0-0.7,0-1.1V20.7z M22.9,25.4c0,0.1,0,0.2,0,0.3c0.2,0.5,0.6,0.9,1.2,0.9c0.8,0,1.3-0.7,1.3-1.7
	c0-0.9-0.5-1.6-1.3-1.6c-0.5,0-1,0.4-1.2,1c0,0.1,0,0.2,0,0.3V25.4z"/>
<path class="st2" d="M27.2,20.7H28v6.4h-0.8V20.7z"/>
<path class="st2" d="M29.7,21.9c-0.3,0-0.5-0.2-0.5-0.5c0-0.3,0.2-0.5,0.5-0.5c0.3,0,0.5,0.2,0.5,0.5C30.2,21.7,30,21.9,29.7,21.9
	L29.7,21.9z M29.3,27.1v-4.4h0.8v4.4H29.3z"/>
<path class="st2" d="M34.5,27c-0.2,0.1-0.7,0.3-1.3,0.3c-1.3,0-2.2-0.9-2.2-2.2c0-1.3,0.9-2.3,2.3-2.3c0.5,0,0.9,0.1,1.1,0.2
	l-0.2,0.6c-0.2-0.1-0.5-0.2-0.9-0.2c-1,0-1.5,0.7-1.5,1.7c0,1,0.6,1.6,1.5,1.6c0.5,0,0.7-0.1,1-0.2L34.5,27z"/>
<path class="st2" d="M35.5,20.7h0.8v2.7h0c0.1-0.2,0.3-0.4,0.6-0.6c0.2-0.1,0.5-0.2,0.8-0.2c0.6,0,1.5,0.4,1.5,1.9v2.6h-0.8v-2.5
	c0-0.7-0.3-1.3-1-1.3c-0.5,0-0.9,0.4-1.1,0.8c0,0.1-0.1,0.2-0.1,0.4v2.6h-0.8V20.7z"/>
<path class="st2" d="M40.9,25.1c0,1.1,0.7,1.5,1.5,1.5c0.6,0,0.9-0.1,1.2-0.2l0.1,0.6c-0.3,0.1-0.8,0.3-1.5,0.3
	c-1.3,0-2.1-0.9-2.1-2.2c0-1.3,0.8-2.4,2.1-2.4c1.4,0,1.8,1.3,1.8,2.1c0,0.2,0,0.3,0,0.4L40.9,25.1z M43.2,24.5
	c0-0.5-0.2-1.3-1.1-1.3c-0.8,0-1.2,0.7-1.2,1.3H43.2z"/>
<path class="st2" d="M44.9,26.3c0.2,0.1,0.7,0.3,1.1,0.3c0.6,0,0.8-0.3,0.8-0.6c0-0.4-0.2-0.6-0.8-0.8c-0.8-0.3-1.2-0.7-1.2-1.2
	c0-0.7,0.6-1.3,1.5-1.3c0.4,0,0.8,0.1,1.1,0.3l-0.2,0.6c-0.2-0.1-0.5-0.3-0.9-0.3c-0.5,0-0.7,0.3-0.7,0.6c0,0.4,0.3,0.5,0.8,0.7
	c0.7,0.3,1.1,0.7,1.1,1.3c0,0.8-0.6,1.3-1.6,1.3c-0.5,0-0.9-0.1-1.2-0.3L44.9,26.3z"/>
<path class="st2" d="M55.1,26.8c-0.4,0.1-1.1,0.3-1.9,0.3c-0.9,0-1.7-0.2-2.3-0.8c-0.5-0.5-0.8-1.3-0.8-2.3c0-1.8,1.3-3.1,3.3-3.1
	c0.7,0,1.3,0.2,1.5,0.3l-0.2,0.6c-0.3-0.2-0.7-0.3-1.3-0.3c-1.5,0-2.4,0.9-2.4,2.4c0,1.5,0.9,2.4,2.3,2.4c0.5,0,0.9-0.1,1-0.2v-1.8
	h-1.2v-0.6h2V26.8z"/>
<path class="st2" d="M56.8,25.1c0,1.1,0.7,1.5,1.5,1.5c0.6,0,0.9-0.1,1.2-0.2l0.1,0.6c-0.3,0.1-0.8,0.3-1.5,0.3
	c-1.3,0-2.1-0.9-2.1-2.2c0-1.3,0.8-2.4,2.1-2.4c1.4,0,1.8,1.3,1.8,2.1c0,0.2,0,0.3,0,0.4L56.8,25.1z M59.1,24.5
	c0-0.5-0.2-1.3-1.1-1.3c-0.8,0-1.2,0.7-1.2,1.3H59.1z"/>
<path class="st2" d="M60.8,26.3c0.2,0.1,0.7,0.3,1.1,0.3c0.6,0,0.8-0.3,0.8-0.6c0-0.4-0.2-0.6-0.8-0.8c-0.8-0.3-1.2-0.7-1.2-1.2
	c0-0.7,0.6-1.3,1.5-1.3c0.4,0,0.8,0.1,1.1,0.3l-0.2,0.6c-0.2-0.1-0.5-0.3-0.9-0.3c-0.5,0-0.7,0.3-0.7,0.6c0,0.4,0.3,0.5,0.8,0.7
	c0.7,0.3,1.1,0.7,1.1,1.3c0,0.8-0.6,1.3-1.6,1.3c-0.5,0-0.9-0.1-1.2-0.3L60.8,26.3z"/>
<path class="st2" d="M68.1,25.9c0,0.5,0,0.8,0,1.2h-0.7l0-0.7h0c-0.2,0.4-0.7,0.8-1.4,0.8c-0.7,0-1.5-0.4-1.5-1.9v-2.5h0.8v2.4
	c0,0.8,0.3,1.4,1,1.4c0.5,0,0.9-0.4,1-0.7c0-0.1,0.1-0.3,0.1-0.4v-2.7h0.8V25.9z"/>
<path class="st2" d="M69.4,23.9c0-0.5,0-0.8,0-1.2h0.7l0,0.7h0c0.2-0.4,0.7-0.8,1.4-0.8c0.6,0,1.5,0.4,1.5,1.9v2.6h-0.8v-2.5
	c0-0.7-0.3-1.3-1-1.3c-0.5,0-0.9,0.4-1.1,0.8c0,0.1-0.1,0.2-0.1,0.4v2.6h-0.8V23.9z"/>
<path class="st2" d="M78.1,20.7V26c0,0.4,0,0.8,0,1.1h-0.7l0-0.8h0c-0.2,0.5-0.8,0.9-1.5,0.9c-1.1,0-1.9-0.9-1.9-2.2
	c0-1.5,0.9-2.3,2-2.3c0.7,0,1.1,0.3,1.3,0.7h0v-2.6H78.1z M77.4,24.5c0-0.1,0-0.2,0-0.3c-0.1-0.5-0.5-0.9-1.1-0.9
	c-0.8,0-1.3,0.7-1.3,1.7c0,0.9,0.4,1.6,1.3,1.6c0.5,0,1-0.4,1.2-0.9c0-0.1,0-0.2,0-0.3V24.5z"/>
<path class="st2" d="M79.5,20.7h0.8v2.7h0c0.1-0.2,0.3-0.4,0.6-0.6c0.2-0.1,0.5-0.2,0.8-0.2c0.6,0,1.5,0.4,1.5,1.9v2.6h-0.8v-2.5
	c0-0.7-0.3-1.3-1-1.3c-0.5,0-0.9,0.4-1.1,0.8c0,0.1-0.1,0.2-0.1,0.4v2.6h-0.8V20.7z"/>
<path class="st2" d="M84.9,25.1c0,1.1,0.7,1.5,1.5,1.5c0.6,0,0.9-0.1,1.2-0.2l0.1,0.6c-0.3,0.1-0.8,0.3-1.5,0.3
	c-1.3,0-2.1-0.9-2.1-2.2c0-1.3,0.8-2.4,2.1-2.4c1.4,0,1.8,1.3,1.8,2.1c0,0.2,0,0.3,0,0.4L84.9,25.1z M87.2,24.5
	c0-0.5-0.2-1.3-1.1-1.3c-0.8,0-1.2,0.7-1.2,1.3H87.2z"/>
<path class="st2" d="M89.3,21.9c-0.3,0-0.5-0.2-0.5-0.5c0-0.3,0.2-0.5,0.5-0.5c0.3,0,0.5,0.2,0.5,0.5C89.9,21.7,89.7,21.9,89.3,21.9
	L89.3,21.9z M89,27.1v-4.4h0.8v4.4H89z"/>
<path class="st2" d="M92,21.7v1h1.1v0.6H92v2.3c0,0.5,0.2,0.8,0.6,0.8c0.2,0,0.3,0,0.5-0.1l0,0.6c-0.2,0.1-0.4,0.1-0.7,0.1
	c-0.4,0-0.7-0.1-0.9-0.3c-0.2-0.2-0.3-0.6-0.3-1.1v-2.4h-0.7v-0.6h0.7v-0.8L92,21.7z"/>
<path class="st2" d="M93.9,26.3c0.2,0.1,0.7,0.3,1.1,0.3c0.6,0,0.8-0.3,0.8-0.6c0-0.4-0.2-0.6-0.8-0.8c-0.8-0.3-1.2-0.7-1.2-1.2
	c0-0.7,0.6-1.3,1.5-1.3c0.4,0,0.8,0.1,1.1,0.3l-0.2,0.6c-0.2-0.1-0.5-0.3-0.9-0.3c-0.5,0-0.7,0.3-0.7,0.6c0,0.4,0.3,0.5,0.8,0.7
	c0.7,0.3,1.1,0.7,1.1,1.3c0,0.8-0.6,1.3-1.6,1.3c-0.5,0-0.9-0.1-1.2-0.3L93.9,26.3z"/>
<path class="st2" d="M97.6,23.9c0-0.5,0-0.8,0-1.2h0.7l0,0.7h0c0.2-0.4,0.6-0.8,1.4-0.8c0.6,0,1,0.4,1.2,0.9h0
	c0.1-0.3,0.3-0.4,0.5-0.6c0.3-0.2,0.5-0.3,1-0.3c0.6,0,1.4,0.4,1.4,1.9v2.6h-0.8v-2.5c0-0.8-0.3-1.3-0.9-1.3c-0.5,0-0.8,0.3-0.9,0.7
	c0,0.1-0.1,0.3-0.1,0.4v2.7h-0.8v-2.6c0-0.7-0.3-1.2-0.9-1.2c-0.5,0-0.9,0.4-1,0.8c0,0.1-0.1,0.3-0.1,0.4v2.6h-0.8V23.9z"/>
<path class="st2" d="M108.2,26.1c0,0.4,0,0.7,0.1,1h-0.7l-0.1-0.5h0c-0.2,0.3-0.7,0.6-1.3,0.6c-0.9,0-1.3-0.6-1.3-1.3
	c0-1.1,0.9-1.6,2.6-1.6v-0.1c0-0.4-0.1-1-1-1c-0.4,0-0.8,0.1-1.1,0.3l-0.2-0.5c0.4-0.2,0.9-0.4,1.4-0.4c1.3,0,1.7,0.9,1.7,1.8V26.1z
	 M107.4,24.9c-0.9,0-1.8,0.1-1.8,1c0,0.5,0.3,0.8,0.7,0.8c0.6,0,0.9-0.4,1.1-0.7c0-0.1,0-0.2,0-0.3V24.9z"/>
<path class="st2" d="M109.5,23.9c0-0.5,0-0.8,0-1.2h0.7l0,0.7h0c0.2-0.4,0.7-0.8,1.4-0.8c0.6,0,1.5,0.4,1.5,1.9v2.6h-0.8v-2.5
	c0-0.7-0.3-1.3-1-1.3c-0.5,0-0.9,0.4-1.1,0.8c0,0.1-0.1,0.2-0.1,0.4v2.6h-0.8V23.9z"/>
<path class="st2" d="M117.5,26.1c0,0.4,0,0.7,0.1,1h-0.7l-0.1-0.5h0c-0.2,0.3-0.7,0.6-1.3,0.6c-0.9,0-1.3-0.6-1.3-1.3
	c0-1.1,0.9-1.6,2.6-1.6v-0.1c0-0.4-0.1-1-1-1c-0.4,0-0.8,0.1-1.1,0.3l-0.2-0.5c0.4-0.2,0.9-0.4,1.4-0.4c1.3,0,1.7,0.9,1.7,1.8V26.1z
	 M116.7,24.9c-0.9,0-1.8,0.1-1.8,1c0,0.5,0.3,0.8,0.7,0.8c0.6,0,0.9-0.4,1.1-0.7c0-0.1,0-0.2,0-0.3V24.9z"/>
<path class="st2" d="M122.5,26.5c0,1-0.2,1.6-0.6,2c-0.4,0.4-1,0.5-1.6,0.5c-0.5,0-1.1-0.1-1.4-0.4L119,28c0.3,0.2,0.7,0.4,1.3,0.4
	c0.8,0,1.4-0.4,1.4-1.5v-0.5h0c-0.2,0.4-0.7,0.7-1.4,0.7c-1.1,0-1.9-0.9-1.9-2.1c0-1.5,1-2.3,2-2.3c0.8,0,1.2,0.4,1.4,0.7h0l0-0.6
	h0.7c0,0.3,0,0.7,0,1.2V26.5z M121.7,24.5c0-0.1,0-0.2,0-0.4c-0.1-0.5-0.5-0.8-1.1-0.8c-0.8,0-1.3,0.6-1.3,1.7
	c0,0.8,0.4,1.6,1.3,1.6c0.5,0,0.9-0.3,1.1-0.8c0-0.1,0.1-0.3,0.1-0.4V24.5z"/>
<path class="st2" d="M124.3,25.1c0,1.1,0.7,1.5,1.5,1.5c0.6,0,0.9-0.1,1.2-0.2l0.1,0.6c-0.3,0.1-0.8,0.3-1.5,0.3
	c-1.3,0-2.1-0.9-2.1-2.2c0-1.3,0.8-2.4,2.1-2.4c1.4,0,1.8,1.3,1.8,2.1c0,0.2,0,0.3,0,0.4L124.3,25.1z M126.6,24.5
	c0-0.5-0.2-1.3-1.1-1.3c-0.8,0-1.2,0.7-1.2,1.3H126.6z"/>
<path class="st2" d="M128.3,23.9c0-0.5,0-0.8,0-1.2h0.7l0,0.7h0c0.2-0.4,0.6-0.8,1.4-0.8c0.6,0,1,0.4,1.2,0.9h0
	c0.1-0.3,0.3-0.4,0.5-0.6c0.3-0.2,0.5-0.3,1-0.3c0.6,0,1.4,0.4,1.4,1.9v2.6h-0.8v-2.5c0-0.8-0.3-1.3-0.9-1.3c-0.5,0-0.8,0.3-0.9,0.7
	c0,0.1-0.1,0.3-0.1,0.4v2.7h-0.8v-2.6c0-0.7-0.3-1.2-0.9-1.2c-0.5,0-0.9,0.4-1,0.8c0,0.1-0.1,0.3-0.1,0.4v2.6h-0.8V23.9z"/>
<path class="st2" d="M136.3,25.1c0,1.1,0.7,1.5,1.5,1.5c0.6,0,0.9-0.1,1.2-0.2l0.1,0.6c-0.3,0.1-0.8,0.3-1.5,0.3
	c-1.3,0-2.1-0.9-2.1-2.2c0-1.3,0.8-2.4,2.1-2.4c1.4,0,1.8,1.3,1.8,2.1c0,0.2,0,0.3,0,0.4L136.3,25.1z M138.6,24.5
	c0-0.5-0.2-1.3-1.1-1.3c-0.8,0-1.2,0.7-1.2,1.3H138.6z"/>
<path class="st2" d="M140.3,23.9c0-0.5,0-0.8,0-1.2h0.7l0,0.7h0c0.2-0.4,0.7-0.8,1.4-0.8c0.6,0,1.5,0.4,1.5,1.9v2.6h-0.8v-2.5
	c0-0.7-0.3-1.3-1-1.3c-0.5,0-0.9,0.4-1.1,0.8c0,0.1-0.1,0.2-0.1,0.4v2.6h-0.8V23.9z"/>
<path class="st2" d="M146.3,21.7v1h1.1v0.6h-1.1v2.3c0,0.5,0.2,0.8,0.6,0.8c0.2,0,0.3,0,0.5-0.1l0,0.6c-0.2,0.1-0.4,0.1-0.7,0.1
	c-0.4,0-0.7-0.1-0.9-0.3c-0.2-0.2-0.3-0.6-0.3-1.1v-2.4h-0.7v-0.6h0.7v-0.8L146.3,21.7z"/>
<path class="st2" d="M0.5,32.2C0.2,32.2,0,32,0,31.7c0-0.3,0.2-0.5,0.5-0.5c0.3,0,0.5,0.2,0.5,0.5C1,32,0.8,32.2,0.5,32.2L0.5,32.2z
	 M0.1,37.4V33h0.8v4.4H0.1z"/>
<path class="st2" d="M2.2,34.2c0-0.5,0-0.8,0-1.2h0.7l0,0.7h0c0.2-0.4,0.6-0.8,1.4-0.8c0.6,0,1,0.4,1.2,0.9h0
	c0.1-0.3,0.3-0.4,0.5-0.6c0.3-0.2,0.5-0.3,1-0.3c0.6,0,1.4,0.4,1.4,1.9v2.6H7.7v-2.5c0-0.8-0.3-1.3-0.9-1.3c-0.5,0-0.8,0.3-0.9,0.7
	c0,0.1-0.1,0.3-0.1,0.4v2.7H5v-2.6c0-0.7-0.3-1.2-0.9-1.2c-0.5,0-0.9,0.4-1,0.8C3,34.5,3,34.6,3,34.8v2.6H2.2V34.2z"/>
<path class="st2" d="M11.7,31.3h0.8v2.9h0c0.2-0.2,0.3-0.5,0.5-0.6l1.9-2.3h1l-2.2,2.6l2.4,3.5H15l-2-3l-0.6,0.7v2.3h-0.8V31.3z"/>
<path class="st2" d="M19.7,36.3c0,0.4,0,0.7,0.1,1h-0.7L19,36.8h0c-0.2,0.3-0.7,0.6-1.3,0.6c-0.9,0-1.3-0.6-1.3-1.3
	c0-1.1,0.9-1.6,2.6-1.6v-0.1c0-0.4-0.1-1-1-1c-0.4,0-0.8,0.1-1.1,0.3l-0.2-0.5c0.4-0.2,0.9-0.4,1.4-0.4c1.3,0,1.7,0.9,1.7,1.8V36.3z
	 M19,35.2c-0.9,0-1.8,0.1-1.8,1c0,0.5,0.3,0.8,0.7,0.8c0.6,0,0.9-0.4,1.1-0.7c0-0.1,0-0.2,0-0.3V35.2z"/>
<path class="st2" d="M21,34.2c0-0.5,0-0.8,0-1.2h0.7l0,0.7h0c0.2-0.4,0.7-0.8,1.4-0.8c0.6,0,1.5,0.4,1.5,1.9v2.6h-0.8v-2.5
	c0-0.7-0.3-1.3-1-1.3c-0.5,0-0.9,0.4-1.1,0.8c0,0.1-0.1,0.2-0.1,0.4v2.6H21V34.2z"/>
<path class="st2" d="M26.9,32v1h1.1v0.6h-1.1V36c0,0.5,0.2,0.8,0.6,0.8c0.2,0,0.3,0,0.5-0.1l0,0.6c-0.2,0.1-0.4,0.1-0.7,0.1
	c-0.4,0-0.7-0.1-0.9-0.3c-0.2-0.2-0.3-0.6-0.3-1.1v-2.4h-0.7V33h0.7v-0.8L26.9,32z"/>
<path class="st2" d="M30.7,37.5c-1.2,0-2.1-0.9-2.1-2.2c0-1.5,1-2.3,2.2-2.3c1.3,0,2.1,0.9,2.1,2.2C32.8,36.8,31.7,37.5,30.7,37.5
	L30.7,37.5z M30.7,36.9c0.8,0,1.3-0.7,1.3-1.7c0-0.7-0.4-1.7-1.3-1.7c-0.9,0-1.3,0.9-1.3,1.7C29.4,36.2,29.9,36.9,30.7,36.9
	L30.7,36.9z"/>
<path class="st2" d="M33.8,34.2c0-0.5,0-0.8,0-1.2h0.7l0,0.7h0c0.2-0.4,0.7-0.8,1.4-0.8c0.6,0,1.5,0.4,1.5,1.9v2.6h-0.8v-2.5
	c0-0.7-0.3-1.3-1-1.3c-0.5,0-0.9,0.4-1.1,0.8c0,0.1-0.1,0.2-0.1,0.4v2.6h-0.8V34.2z"/>
<path class="st2" d="M41.7,35.5l-0.6,1.9h-0.8l2.1-6.1h0.9l2.1,6.1h-0.8l-0.6-1.9H41.7z M43.7,34.9l-0.6-1.7
	c-0.1-0.4-0.2-0.8-0.3-1.1h0c-0.1,0.4-0.2,0.7-0.3,1.1l-0.6,1.8H43.7z"/>
<path class="st2" d="M49.3,36.3c0,0.4,0,0.7,0.1,1h-0.7l-0.1-0.5h0c-0.2,0.3-0.7,0.6-1.3,0.6c-0.9,0-1.3-0.6-1.3-1.3
	c0-1.1,0.9-1.6,2.6-1.6v-0.1c0-0.4-0.1-1-1-1c-0.4,0-0.8,0.1-1.1,0.3l-0.2-0.5c0.4-0.2,0.9-0.4,1.4-0.4c1.3,0,1.7,0.9,1.7,1.8V36.3z
	 M48.6,35.2c-0.9,0-1.8,0.1-1.8,1c0,0.5,0.3,0.8,0.7,0.8c0.6,0,0.9-0.4,1.1-0.7c0-0.1,0-0.2,0-0.3V35.2z"/>
<path class="st2" d="M50.6,34.4c0-0.5,0-1,0-1.4h0.7l0,0.9h0c0.2-0.6,0.7-1,1.2-1c0.1,0,0.1,0,0.2,0v0.7c-0.1,0-0.2,0-0.3,0
	c-0.6,0-1,0.4-1.1,1c0,0.1,0,0.2,0,0.4v2.3h-0.8L50.6,34.4z"/>
<path class="st2" d="M57.2,36.8c0,1-0.2,1.6-0.6,2c-0.4,0.4-1,0.5-1.6,0.5c-0.5,0-1.1-0.1-1.4-0.4l0.2-0.6c0.3,0.2,0.7,0.4,1.3,0.4
	c0.8,0,1.4-0.4,1.4-1.5v-0.5h0c-0.2,0.4-0.7,0.7-1.4,0.7c-1.1,0-1.9-0.9-1.9-2.1c0-1.5,1-2.3,2-2.3c0.8,0,1.2,0.4,1.4,0.7h0l0-0.6
	h0.7c0,0.3,0,0.7,0,1.2V36.8z M56.4,34.7c0-0.1,0-0.2,0-0.4c-0.1-0.5-0.5-0.8-1.1-0.8c-0.8,0-1.3,0.6-1.3,1.7c0,0.8,0.4,1.6,1.3,1.6
	c0.5,0,0.9-0.3,1.1-0.8c0-0.1,0.1-0.3,0.1-0.4V34.7z"/>
<path class="st2" d="M61.6,36.3c0,0.4,0,0.7,0.1,1h-0.7l-0.1-0.5h0c-0.2,0.3-0.7,0.6-1.3,0.6c-0.9,0-1.3-0.6-1.3-1.3
	c0-1.1,0.9-1.6,2.6-1.6v-0.1c0-0.4-0.1-1-1-1c-0.4,0-0.8,0.1-1.1,0.3l-0.2-0.5c0.4-0.2,0.9-0.4,1.4-0.4c1.3,0,1.7,0.9,1.7,1.8V36.3z
	 M60.8,35.2c-0.9,0-1.8,0.1-1.8,1c0,0.5,0.3,0.8,0.7,0.8c0.6,0,0.9-0.4,1.1-0.7c0-0.1,0-0.2,0-0.3V35.2z"/>
<path class="st2" d="M66.5,36.2c0,0.5,0,0.8,0,1.2h-0.7l0-0.7h0c-0.2,0.4-0.7,0.8-1.4,0.8c-0.7,0-1.5-0.4-1.5-1.9V33h0.8v2.4
	c0,0.8,0.3,1.4,1,1.4c0.5,0,0.9-0.4,1-0.7c0-0.1,0.1-0.3,0.1-0.4V33h0.8V36.2z"/>
</svg>
