<?xml version="1.0" encoding="utf-8"?>
<svg class="block fill-current text-ml-black" viewBox="0 0 189 31" width="100%" height="100%" xmlns="http://www.w3.org/2000/svg">
              <g fill-rule="evenodd">
                <path d="M160.33 18.666s-.01 11.543-.024 11.549c-.056-.006-7.125-.014-7.125-.014-.01.008.009-23.55.009-23.55-.022-4.464 4.248-6.277 7.47-6.283 3.573.006 7.146 1.959 7.159 5.816 0 0 .008 3.949-.004 3.945h-6.824l.03-3.015-1.065.014s.003 4.4-.027 4.4c.03 0 8.015 0 7.94.007l.03 7.079-7.57.052z"></path>
                <path d="M137.127926 30.2080361L144.061672 30.2080361 144.061672 0.373980556 137.127926 0.373980556z"></path>
                <path d="M145.042813 10.1329528L152.187669 10.1329528 152.187669 3.86061944 145.042813 3.86061944z"></path>
                <path d="M145.042813 30.2080361L152.187669 30.2080361 152.187669 11.5279528 145.042813 11.5279528z"></path>
                <path d="M176.488 30.782c-4.131-.017-7.633-2.108-7.63-6.918 0-.095-.003-23.49-.037-23.496.034.006 6.687.006 6.699 0-.012.006-.023 3.493.007 3.492-.03 0 7.967 0 7.938.003-.027-.002.099 6.27.05 6.27-.022 0-7.658 0-7.654-.003 0 0-.004 13.734 0 13.733-.004.001.995.001.967-.001.028.002.011-12.357.011-12.357 0 .023 6.654.023 6.677.028-.023-.005.012 12.11.012 12.11-.035 5.171-3.328 7.122-7.04 7.139m-100.84-.576c.011.003-6.853.003-6.857.01l-.033-20.09c.015.007-1.187.01-1.187.01.02-.003-.003 20.067-.003 20.067-.023.006-6.608.006-6.614.006.006 0-.024-20.076-.032-20.08.008.004-1.19.005-1.19.005s.006 20.075-.016 20.072c.022.003-6.77.003-6.77.01l.034-20.221c.018-2.677 1.651-5.1 4.026-6.377 2.064-1.178 5.324-1.036 7.295.237.55-.204.845-.49 1.411-.635 2.618-.99 5.813-.255 7.726 1.77 1.428 1.52 2.199 3.402 2.178 5.15l.032 20.066m23.882 0c.012.003-6.852.003-6.855.01l-.036-20.09c.017.007-1.186.01-1.186.01.02-.003-.003 20.067-.003 20.067-.023.006-6.608.006-6.615.006.007 0-.023-20.076-.031-20.08.008.004-1.189.005-1.189.005s.005 20.075-.017 20.072c.022.003-6.771.003-6.77.01-.001-.007.033-20.221.033-20.221.02-2.677 1.652-5.1 4.028-6.377 2.063-1.178 5.323-1.036 7.293.237.552-.204.847-.49 1.412-.635 2.618-.99 5.813-.255 7.726 1.77 1.428 1.52 2.2 3.402 2.178 5.15l.032 20.066m-76.829 0c.012.003-6.853.003-6.856.01l-.034-20.09c.015.007-1.187.01-1.187.01.02-.003-.003 20.067-.003 20.067-.025.006-6.608.006-6.614.006.006 0-.024-20.076-.032-20.08.008.004-1.19.005-1.19.005s.006 20.075-.016 20.072c.022.003-6.772.003-6.77.01-.002-.007.033-20.221.033-20.221.018-2.677 1.653-5.1 4.028-6.377 2.062-1.178 5.323-1.036 7.294.237.55-.204.845-.49 1.411-.635 2.618-.99 5.814-.255 7.727 1.77 1.427 1.52 2.198 3.402 2.177 5.15l.032 20.066m15.127-6.257c3.948 0 7.148-3.184 7.148-7.114 0-3.928-3.2-7.112-7.148-7.112-3.947 0-7.146 3.184-7.146 7.112 0 3.93 3.2 7.114 7.146 7.114m6.988 6.261c-.005.005.036-1.1.036-1.1-2.31 1.028-4.695 1.831-7.354 1.759-5.467-.039-10.682-3.695-12.645-8.846-2.03-4.877-.82-10.885 2.772-14.656 3.829-4.153 9.995-5.54 15.274-3.583 5.03 1.891 8.855 6.976 8.887 12.527l-.017 13.902s-6.947-.004-6.953-.003m79.075.572c-4.132-.017-7.633-2.108-7.628-6.918 0-.095-.005-23.49-.038-23.496.033.006 6.684.006 6.698 0-.014.006-.022 3.493.005 3.492-.027 0 7.969 0 7.94.003-.027-.002.097 6.27.05 6.27-.023 0-7.657 0-7.656-.003v13.733c-.001.001.997.001.968-.001.029.002.01-12.357.01-12.357 0 .023 6.655.023 6.68.028-.025-.005.01 12.11.01 12.11-.035 5.171-3.328 7.122-7.039 7.139m-15.688 0c-4.132-.017-7.633-2.108-7.63-6.918 0-.095-.003-20.003-.037-20.011.034.008 7.01.008 7.02 0-.01.008.016 20.011.019 20.01-.003.001.996.001.968-.001.028.002.01-20.019.01-20.019 0 .024 6.654-.001 6.678.006-.024-.007.01 19.793.01 19.793-.034 5.172-3.326 7.123-7.038 7.14m78.125-28.629c.344 0 .654-.024.654-.435 0-.332-.303-.393-.588-.393h-.554v.828h.488zm-.488 1.504h-.406V.981h1.022c.636 0 .95.234.95.76 0 .48-.303.688-.697.737l.766 1.179h-.456l-.71-1.16h-.469v1.16zm.493.594c1.057 0 1.888-.821 1.888-1.937 0-1.1-.831-1.928-1.888-1.928-1.067 0-1.898.829-1.898 1.928 0 1.116.831 1.937 1.898 1.937zm-2.366-1.937C183.967.98 185.052 0 186.333 0c1.271 0 2.356.981 2.356 2.314 0 1.343-1.085 2.324-2.356 2.324-1.281 0-2.366-.981-2.366-2.324z"></path>
              </g>
</svg>