<?xml version="1.0" standalone="no"?>
<!DOCTYPE svg PUBLIC "-//W3C//DTD SVG 1.1//EN" "http://www.w3.org/Graphics/SVG/1.1/DTD/svg11.dtd">
<!--Generator: Xara Designer (www.xara.com), SVG filter version: 6.6.0.9-->
<svg fill="none" fill-rule="evenodd" stroke="black" stroke-width="0.501" stroke-linejoin="bevel" stroke-miterlimit="10" font-family="Times New Roman" font-size="16" style="font-variant-ligatures:none" xmlns:xlink="http://www.w3.org/1999/xlink" xmlns="http://www.w3.org/2000/svg" version="1.1" overflow="visible" width="419.123pt" height="87.659pt" viewBox="90.153 -244.303 419.123 87.659">
 <defs>
	</defs>
 <g id="Layer 1" transform="scale(1 -1)">
  <g id="Group" fill-rule="nonzero" stroke-linejoin="miter" stroke="none" stroke-width="0.713">
   <rect x="-13.0415" y="-13.2205" width="26.083" height="26.441" rx="0" ry="0" transform="matrix(1 0 0 1 103.194 231.082)" fill="#c4c4c4"/>
   <rect x="-13.0055" y="-13.2205" width="26.011" height="26.441" rx="0" ry="0" transform="matrix(1 0 0 1 133.375 231.082)" fill="#c4c4c4"/>
   <rect x="-13.0055" y="-13.2205" width="26.011" height="26.441" rx="0" ry="0" transform="matrix(1 0 0 1 163.521 231.082)" fill="#c4c4c4"/>
   <rect x="-13.0055" y="-13.2205" width="26.011" height="26.441" rx="0" ry="0" transform="matrix(1 0 0 1 163.521 200.437)" fill="#c4c4c4"/>
   <rect x="-13.0055" y="-13.2205" width="26.011" height="26.441" rx="0" ry="0" transform="matrix(1 0 0 1 163.521 169.864)" fill="#c4c4c4"/>
   <rect x="-13.0055" y="-13.2205" width="26.011" height="26.441" rx="0" ry="0" transform="matrix(1 0 0 1 133.375 169.864)" fill="#c4c4c4"/>
   <rect x="-13.0055" y="-13.2205" width="26.011" height="26.441" rx="0" ry="0" transform="matrix(1 0 0 1 103.158 169.864)" fill="#c4c4c4"/>
   <rect x="-13.0055" y="-13.2205" width="26.011" height="26.441" rx="0" ry="0" transform="matrix(1 0 0 1 103.158 200.437)" fill="#c4c4c4"/>
   <path d="M 201.757,225.346 L 201.757,242.237 L 203.539,242.237 L 216.011,230.905 C 216.296,230.62 216.581,230.335 216.937,229.979 C 217.222,229.622 217.579,229.195 217.935,228.767 C 217.864,229.337 217.793,229.907 217.721,230.477 C 217.65,231.048 217.65,231.903 217.65,232.901 L 217.65,242.165 L 220.216,242.165 L 220.216,225.275 L 218.648,225.275 L 205.891,237.034 C 205.82,237.105 205.748,237.177 205.606,237.319 C 204.964,237.889 204.537,238.459 204.181,238.958 C 204.252,238.459 204.323,237.889 204.323,237.319 C 204.323,236.749 204.394,236.036 204.394,235.252 L 204.394,225.275 L 201.757,225.275 Z" fill="#0064a7" marker-start="none" marker-end="none"/>
   <path d="M 226.345,225.346 L 226.345,242.237 L 242.38,242.237 L 242.38,239.956 L 229.124,239.956 L 229.124,235.252 L 237.249,235.252 L 237.249,233.043 L 229.124,233.043 L 229.124,227.698 L 242.522,227.698 L 242.522,225.346 L 226.345,225.346 Z" fill="#0064a7" marker-start="none" marker-end="none"/>
   <path d="M 253.996,239.885 L 253.996,225.275 L 251.217,225.275 L 251.217,239.885 L 243.591,239.885 L 243.591,242.165 L 261.622,242.165 L 261.622,239.885 L 253.996,239.885 Z" fill="#0064a7" marker-start="none" marker-end="none"/>
   <path d="M 262.477,225.346 L 262.477,226.487 L 274.806,239.956 L 263.546,239.956 L 263.546,242.237 L 279.225,242.237 L 279.225,241.31 L 266.682,227.698 L 279.225,227.698 L 279.225,225.346 L 262.477,225.346 Z" fill="#0064a7" marker-start="none" marker-end="none"/>
   <path d="M 287.777,225.346 L 281.719,242.237 L 284.499,242.237 L 288.989,228.767 L 293.906,242.237 L 295.617,242.237 L 300.32,228.767 L 304.881,242.237 L 307.376,242.237 L 301.318,225.346 L 299.322,225.346 L 294.69,238.103 L 289.915,225.346 L 287.777,225.346 Z" fill="#0064a7" marker-start="none" marker-end="none"/>
   <path d="M 310.369,225.346 L 310.369,242.237 L 326.404,242.237 L 326.404,239.956 L 313.148,239.956 L 313.148,235.252 L 321.273,235.252 L 321.273,233.043 L 313.148,233.043 L 313.148,227.698 L 326.547,227.698 L 326.547,225.346 L 310.369,225.346 Z" fill="#0064a7" marker-start="none" marker-end="none"/>
   <path d="M 330.68,225.346 L 330.68,242.237 L 344.078,242.237 C 345.361,242.237 346.216,241.952 346.787,241.453 C 347.357,240.954 347.642,240.099 347.642,238.958 L 347.642,235.181 C 347.642,234.041 347.357,233.186 346.787,232.687 C 346.216,232.188 345.361,231.903 344.078,231.903 L 341.655,231.903 L 349.281,225.346 L 345.147,225.346 L 338.377,231.903 L 333.46,231.903 L 333.46,225.346 L 330.68,225.346 Z M 343.009,240.027 L 333.46,240.027 L 333.46,234.112 L 343.009,234.112 C 343.722,234.112 344.15,234.255 344.435,234.468 C 344.72,234.754 344.791,235.181 344.791,235.823 L 344.791,238.317 C 344.791,238.958 344.648,239.386 344.435,239.671 C 344.15,239.885 343.722,240.027 343.009,240.027 Z" fill="#0064a7" marker-start="none" marker-end="none"/>
   <path d="M 352.844,225.346 L 352.844,242.237 L 355.624,242.237 L 355.624,234.967 L 366.029,242.237 L 370.091,242.237 L 358.047,234.112 L 371.445,225.275 L 366.813,225.275 L 355.624,232.901 L 355.624,225.275 L 352.844,225.275 Z" fill="#0064a7" marker-start="none" marker-end="none"/>
   <path d="M 215.868,217.863 L 204.323,217.863 L 204.323,205.605 L 215.868,205.605 L 215.868,209.81 L 218.648,209.24 L 218.648,207.244 C 218.648,205.676 218.363,204.607 217.864,204.109 C 217.294,203.538 216.296,203.253 214.799,203.253 L 205.463,203.253 C 203.967,203.253 202.898,203.538 202.399,204.109 C 201.829,204.679 201.615,205.748 201.615,207.244 L 201.615,216.153 C 201.615,217.721 201.9,218.718 202.399,219.289 C 202.969,219.859 203.967,220.144 205.463,220.144 L 214.799,220.144 C 216.296,220.144 217.365,219.859 217.864,219.289 C 218.434,218.718 218.648,217.649 218.648,216.153 L 218.648,214.585 L 215.868,214.086 L 215.868,217.863 Z" fill="#0064a7" marker-start="none" marker-end="none"/>
   <path d="M 219.503,203.253 L 228.554,220.144 L 231.547,220.144 L 240.812,203.253 L 237.747,203.253 L 235.609,207.387 L 224.349,207.387 L 222.211,203.253 L 219.503,203.253 Z M 225.561,209.596 L 234.469,209.596 L 229.979,218.22 L 225.561,209.596 Z" fill="#0064a7" marker-start="none" marker-end="none"/>
   <path d="M 257.132,217.863 L 245.373,217.863 L 245.373,213.16 L 255.849,213.16 C 257.346,213.16 258.344,212.874 258.914,212.304 C 259.484,211.734 259.698,210.665 259.698,209.169 L 259.698,207.244 C 259.698,205.676 259.413,204.607 258.914,204.109 C 258.344,203.538 257.346,203.253 255.849,203.253 L 246.157,203.253 C 244.66,203.253 243.591,203.538 243.093,204.109 C 242.522,204.679 242.309,205.748 242.309,207.244 L 242.309,207.743 L 244.874,208.385 L 244.874,205.676 L 257.275,205.676 L 257.275,210.736 L 246.798,210.736 C 245.302,210.736 244.233,211.022 243.734,211.592 C 243.164,212.162 242.95,213.231 242.95,214.727 L 242.95,216.153 C 242.95,217.721 243.235,218.718 243.734,219.289 C 244.304,219.859 245.302,220.144 246.798,220.144 L 255.636,220.144 C 257.132,220.144 258.13,219.859 258.7,219.289 C 259.27,218.718 259.555,217.792 259.555,216.367 L 259.555,216.01 L 257.203,215.298 L 257.203,217.863 Z" fill="#0064a7" marker-start="none" marker-end="none"/>
   <path d="M 264.9,203.253 L 264.9,220.144 L 280.935,220.144 L 280.935,217.863 L 267.68,217.863 L 267.68,213.16 L 275.804,213.16 L 275.804,210.95 L 267.68,210.95 L 267.68,205.605 L 281.078,205.605 L 281.078,203.253 L 264.9,203.253 Z" fill="#0064a7" marker-start="none" marker-end="none"/>
   <path d="M 295.474,217.151 C 295.545,216.794 295.545,216.438 295.545,216.081 C 295.545,215.725 295.545,215.226 295.545,214.656 L 295.545,203.253 L 293.193,203.253 L 293.193,220.144 L 295.474,220.144 L 303.599,209.169 L 311.153,220.144 L 313.719,220.144 L 313.719,203.253 L 311.153,203.253 L 311.153,214.656 C 311.153,214.799 311.153,215.155 311.224,215.796 C 311.295,216.367 311.295,216.865 311.295,217.151 C 311.082,216.723 310.868,216.367 310.725,216.081 C 310.583,215.796 310.44,215.511 310.298,215.369 L 303.955,205.962 L 303.242,205.962 L 296.614,215.084 C 296.614,215.084 296.543,215.155 296.543,215.226 C 296.044,215.868 295.688,216.509 295.474,217.151 Z" fill="#0064a7" marker-start="none" marker-end="none"/>
   <path d="M 315.928,203.253 L 324.979,220.144 L 327.972,220.144 L 337.237,203.253 L 334.172,203.253 L 332.034,207.387 L 320.774,207.387 L 318.636,203.253 L 315.928,203.253 Z M 321.914,209.596 L 330.894,209.596 L 326.404,218.22 L 321.914,209.596 Z" fill="#0064a7" marker-start="none" marker-end="none"/>
   <path d="M 339.375,203.253 L 339.375,220.144 L 341.156,220.144 L 353.628,208.812 C 353.913,208.527 354.198,208.242 354.555,207.886 C 354.84,207.529 355.196,207.102 355.552,206.674 C 355.481,207.244 355.41,207.814 355.339,208.385 C 355.267,208.955 355.267,209.81 355.267,210.808 L 355.267,220.072 L 357.833,220.072 L 357.833,203.182 L 356.265,203.182 L 343.508,214.941 C 343.437,215.012 343.366,215.084 343.223,215.226 C 342.582,215.796 342.154,216.367 341.798,216.865 C 341.869,216.367 341.94,215.796 341.94,215.226 C 341.94,214.656 342.012,213.943 342.012,213.16 L 342.012,203.182 L 339.375,203.182 Z" fill="#0064a7" marker-start="none" marker-end="none"/>
   <path d="M 359.9,203.253 L 368.951,220.144 L 371.944,220.144 L 381.209,203.253 L 378.144,203.253 L 376.006,207.387 L 364.746,207.387 L 362.608,203.253 L 359.9,203.253 Z M 365.957,209.596 L 374.866,209.596 L 370.376,218.22 L 365.957,209.596 Z" fill="#0064a7" marker-start="none" marker-end="none"/>
   <path d="M 398.954,217.863 L 385.912,217.863 L 385.912,205.605 L 398.954,205.605 L 398.954,210.594 L 392.184,210.594 L 392.184,212.732 L 401.662,212.732 L 401.662,207.244 C 401.662,205.676 401.377,204.679 400.878,204.109 C 400.308,203.538 399.311,203.253 397.814,203.253 L 387.053,203.253 C 385.556,203.253 384.487,203.538 383.988,204.109 C 383.418,204.679 383.204,205.748 383.204,207.244 L 383.204,216.153 C 383.204,217.721 383.489,218.718 383.988,219.289 C 384.558,219.859 385.556,220.144 387.053,220.144 L 397.814,220.144 C 399.311,220.144 400.308,219.859 400.878,219.289 C 401.449,218.718 401.734,217.721 401.734,216.295 L 401.734,215.868 L 398.954,215.298 L 398.954,217.863 Z" fill="#0064a7" marker-start="none" marker-end="none"/>
   <path d="M 406.509,203.253 L 406.509,220.144 L 422.544,220.144 L 422.544,217.863 L 409.288,217.863 L 409.288,213.16 L 417.413,213.16 L 417.413,210.95 L 409.288,210.95 L 409.288,205.605 L 422.615,205.605 L 422.615,203.253 L 406.509,203.253 Z" fill="#0064a7" marker-start="none" marker-end="none"/>
   <path d="M 428.245,217.151 C 428.316,216.794 428.316,216.438 428.316,216.081 C 428.316,215.725 428.316,215.226 428.316,214.656 L 428.316,203.253 L 425.965,203.253 L 425.965,220.144 L 428.245,220.144 L 436.37,209.169 L 443.924,220.144 L 446.49,220.144 L 446.49,203.253 L 443.924,203.253 L 443.924,214.656 C 443.924,214.799 443.924,215.155 443.995,215.796 C 444.066,216.367 444.066,216.865 444.066,217.151 C 443.853,216.723 443.639,216.367 443.496,216.081 C 443.354,215.796 443.211,215.511 443.069,215.369 L 436.726,205.962 L 436.013,205.962 L 429.385,215.084 C 429.385,215.084 429.314,215.155 429.314,215.226 C 428.815,215.868 428.459,216.509 428.245,217.151 Z" fill="#0064a7" marker-start="none" marker-end="none"/>
   <path d="M 451.906,203.253 L 451.906,220.144 L 467.941,220.144 L 467.941,217.863 L 454.685,217.863 L 454.685,213.16 L 462.81,213.16 L 462.81,210.95 L 454.685,210.95 L 454.685,205.605 L 468.084,205.605 L 468.084,203.253 L 451.906,203.253 Z" fill="#0064a7" marker-start="none" marker-end="none"/>
   <path d="M 471.433,203.253 L 471.433,220.144 L 473.215,220.144 L 485.687,208.812 C 485.972,208.527 486.257,208.242 486.613,207.886 C 486.898,207.529 487.255,207.102 487.611,206.674 C 487.54,207.244 487.468,207.814 487.397,208.385 C 487.326,208.955 487.326,209.81 487.326,210.808 L 487.326,220.072 L 489.891,220.072 L 489.891,203.182 L 488.324,203.182 L 475.567,214.941 C 475.495,215.012 475.424,215.084 475.282,215.226 C 474.64,215.796 474.213,216.367 473.856,216.865 C 473.927,216.367 473.999,215.796 473.999,215.226 C 473.999,214.656 474.07,213.943 474.07,213.16 L 474.07,203.182 L 471.433,203.182 Z" fill="#0064a7" marker-start="none" marker-end="none"/>
   <path d="M 501.651,217.863 L 501.651,203.253 L 498.871,203.253 L 498.871,217.863 L 491.245,217.863 L 491.245,220.144 L 509.276,220.144 L 509.276,217.863 L 501.651,217.863 Z" fill="#0064a7" marker-start="none" marker-end="none"/>
   <path d="M 216.011,195.842 L 204.252,195.842 L 204.252,191.138 L 214.728,191.138 C 216.225,191.138 217.222,190.853 217.793,190.283 C 218.363,189.713 218.577,188.644 218.577,187.147 L 218.577,185.223 C 218.577,183.655 218.291,182.586 217.793,182.087 C 217.222,181.517 216.225,181.232 214.728,181.232 L 205.036,181.232 C 203.539,181.232 202.47,181.517 201.971,182.087 C 201.401,182.657 201.187,183.726 201.187,185.223 L 201.187,185.722 L 203.753,186.363 L 203.753,183.655 L 216.153,183.655 L 216.153,188.715 L 205.677,188.715 C 204.181,188.715 203.112,189 202.613,189.57 C 202.043,190.14 201.829,191.209 201.829,192.706 L 201.829,194.202 C 201.829,195.77 202.114,196.768 202.613,197.338 C 203.183,197.908 204.181,198.193 205.677,198.193 L 214.514,198.193 C 216.011,198.193 217.009,197.908 217.579,197.338 C 218.149,196.768 218.434,195.842 218.434,194.487 L 218.434,194.131 L 216.082,193.418 L 216.082,195.842 Z" fill="#c4c4c4" marker-start="none" marker-end="none"/>
   <path d="M 238.603,195.842 L 227.057,195.842 L 227.057,183.584 L 238.603,183.584 L 238.603,187.788 L 241.382,187.218 L 241.382,185.223 C 241.382,183.655 241.097,182.586 240.598,182.087 C 240.028,181.517 239.03,181.232 237.534,181.232 L 228.198,181.232 C 226.701,181.232 225.632,181.517 225.133,182.087 C 224.563,182.657 224.349,183.726 224.349,185.223 L 224.349,194.131 C 224.349,195.699 224.634,196.697 225.133,197.267 C 225.703,197.837 226.701,198.122 228.198,198.122 L 237.534,198.122 C 239.03,198.122 240.099,197.837 240.598,197.267 C 241.168,196.697 241.382,195.628 241.382,194.131 L 241.382,192.563 L 238.603,192.064 L 238.603,195.842 Z" fill="#c4c4c4" marker-start="none" marker-end="none"/>
   <path d="M 246.3,181.232 L 246.3,198.122 L 249.079,198.122 L 249.079,191.209 L 262.192,191.209 L 262.192,198.122 L 264.972,198.122 L 264.972,181.232 L 262.192,181.232 L 262.192,188.929 L 249.079,188.929 L 249.079,181.232 L 246.3,181.232 Z" fill="#c4c4c4" marker-start="none" marker-end="none"/>
   <path d="M 273.951,181.232 L 267.894,198.122 L 270.673,198.122 L 275.163,184.724 L 280.08,198.122 L 281.791,198.122 L 286.494,184.724 L 291.055,198.122 L 293.55,198.122 L 287.492,181.232 L 285.425,181.232 L 280.793,193.989 L 276.018,181.232 L 273.951,181.232 Z" fill="#c4c4c4" marker-start="none" marker-end="none"/>
   <path d="M 296.543,181.232 L 296.543,198.122 L 312.578,198.122 L 312.578,195.842 L 299.322,195.842 L 299.322,191.138 L 307.447,191.138 L 307.447,188.929 L 299.322,188.929 L 299.322,183.584 L 312.721,183.584 L 312.721,181.232 L 296.543,181.232 Z" fill="#c4c4c4" marker-start="none" marker-end="none"/>
   <path d="M 316.854,181.232 L 316.854,198.122 L 319.634,198.122 L 319.634,181.232 L 316.854,181.232 Z" fill="#c4c4c4" marker-start="none" marker-end="none"/>
   <path d="M 323.696,181.232 L 323.696,182.372 L 336.025,195.842 L 324.765,195.842 L 324.765,198.122 L 340.444,198.122 L 340.444,197.196 L 327.901,183.584 L 340.444,183.584 L 340.444,181.232 L 323.696,181.232 Z" fill="#c4c4c4" marker-start="none" marker-end="none"/>
   <path d="M 145.385,212.661 L 145.171,213.088 L 144.744,213.373 L 133.768,219.36 L 113.813,208.171 L 121.51,187.717 L 132.913,181.517 L 152.868,192.706 Z" fill="#0064a7" marker-start="none" marker-end="none"/>
   <path d="M 145.385,212.732 L 145.242,213.16 L 144.744,213.373 L 125.074,202.398 L 114.17,208.385 L 113.813,208.171 L 114.027,207.672 L 124.86,201.757 L 132.414,181.802 L 132.913,181.517 L 132.058,183.797 L 132.913,181.517 L 133.341,181.731 L 125.786,201.757 Z" fill="#ffffff" marker-start="none" marker-end="none"/>
   <path d="M 499.299,157.856 L 500.581,157.856 L 500.581,163.843 C 501.365,164.484 502.149,165.054 503.076,165.054 C 504.216,165.054 504.572,164.128 504.572,162.916 L 504.572,157.856 L 505.855,157.856 L 505.855,163.344 C 505.855,165.41 504.715,166.194 503.432,166.194 C 502.363,166.194 501.437,165.695 500.581,164.912 L 500.439,165.981 L 499.37,165.981 L 499.37,157.856 Z M 490.889,162.702 C 490.889,164.056 491.673,165.197 492.956,165.197 C 494.239,165.197 494.809,163.985 494.88,162.702 L 490.889,162.702 Z M 496.163,161.705 L 496.163,161.99 C 496.163,164.555 494.951,166.194 492.885,166.194 C 490.889,166.194 489.535,164.484 489.535,161.99 C 489.535,159.638 490.818,157.642 493.384,157.642 C 494.31,157.642 495.236,157.927 495.949,158.355 L 495.522,159.281 C 494.951,158.996 494.31,158.711 493.526,158.711 C 491.816,158.711 490.818,159.994 490.818,161.705 L 496.163,161.705 Z M 479.914,157.856 L 481.197,157.856 L 481.197,163.843 C 481.981,164.484 482.765,165.054 483.691,165.054 C 484.831,165.054 485.188,164.128 485.188,162.916 L 485.188,157.856 L 486.471,157.856 L 486.471,163.344 C 486.471,165.41 485.33,166.194 484.047,166.194 C 482.978,166.194 482.052,165.695 481.197,164.912 L 481.054,165.981 L 479.985,165.981 L 479.985,157.856 Z M 473.072,158.783 C 471.576,158.783 470.649,160.065 470.649,161.918 C 470.649,163.771 471.576,165.125 473.144,165.125 C 474.64,165.125 475.567,163.843 475.567,161.918 C 475.495,160.065 474.569,158.783 473.072,158.783 M 473.072,157.714 C 475.353,157.714 476.849,159.566 476.849,161.99 C 476.849,164.413 475.353,166.266 473.072,166.266 C 470.792,166.266 469.295,164.413 469.295,161.99 C 469.295,159.566 470.792,157.714 473.072,157.714 M 465.447,167.833 C 465.946,167.833 466.302,168.19 466.302,168.689 C 466.302,169.188 465.946,169.544 465.447,169.544 C 464.948,169.544 464.591,169.188 464.591,168.689 C 464.592,168.19 464.948,167.833 465.447,167.833 M 464.877,157.856 L 466.159,157.856 L 466.159,165.981 L 464.877,165.981 L 464.877,157.856 Z M 459.959,157.714 C 460.743,157.714 461.527,157.999 462.026,158.355 L 461.598,159.281 C 461.242,159.068 460.814,158.854 460.244,158.854 C 459.674,158.854 459.389,159.139 459.389,159.852 L 459.389,165.054 L 461.456,165.054 L 461.812,166.123 L 459.389,166.123 L 459.389,168.404 L 458.106,167.976 L 458.106,166.123 L 456.752,166.123 L 456.752,165.054 L 458.106,165.054 L 458.106,159.638 C 458.106,158.355 458.748,157.714 459.959,157.714 M 449.982,157.714 C 451.051,157.714 451.977,158.212 452.69,158.854 L 452.904,157.927 L 454.044,157.927 C 453.973,158.355 453.901,159.068 453.901,160.707 L 453.901,166.123 L 452.619,166.123 L 452.619,160.065 C 452.191,159.495 451.264,158.925 450.338,158.925 C 449.697,158.925 449.198,159.21 448.984,159.852 C 448.841,160.208 448.841,160.564 448.841,161.134 L 448.841,166.123 L 447.559,166.123 L 447.559,160.778 C 447.559,160.137 447.63,159.709 447.772,159.281 C 448.2,158.07 449.198,157.714 449.982,157.714 M 442.855,157.714 C 443.639,157.714 444.423,157.999 444.922,158.355 L 444.494,159.281 C 444.138,159.068 443.71,158.854 443.14,158.854 C 442.57,158.854 442.285,159.139 442.285,159.852 L 442.285,165.054 L 444.352,165.054 L 444.708,166.123 L 442.285,166.123 L 442.285,168.404 L 441.002,167.976 L 441.002,166.123 L 439.648,166.123 L 439.648,165.054 L 441.002,165.054 L 441.002,159.638 C 441.073,158.355 441.715,157.714 442.855,157.714 M 436.156,167.833 C 436.655,167.833 437.011,168.19 437.011,168.689 C 437.011,169.188 436.655,169.544 436.156,169.544 C 435.657,169.544 435.301,169.188 435.301,168.689 C 435.372,168.19 435.657,167.833 436.156,167.833 M 435.586,157.856 L 436.868,157.856 L 436.868,165.981 L 435.586,165.981 L 435.586,157.856 Z M 430.668,157.714 C 431.452,157.714 432.236,157.999 432.735,158.355 L 432.307,159.281 C 431.951,159.068 431.523,158.854 430.953,158.854 C 430.383,158.854 430.098,159.139 430.098,159.852 L 430.098,165.054 L 432.165,165.054 L 432.521,166.123 L 430.098,166.123 L 430.098,168.404 L 428.815,167.976 L 428.815,166.123 L 427.461,166.123 L 427.461,165.054 L 428.815,165.054 L 428.815,159.638 C 428.815,158.355 429.528,157.714 430.668,157.714 M 419.622,158.355 C 420.121,157.999 420.976,157.642 422.045,157.642 C 423.684,157.642 425.038,158.426 425.038,160.065 C 425.038,162.845 421.19,162.203 421.19,163.985 C 421.19,164.84 421.974,165.125 422.758,165.125 C 423.541,165.125 424.183,164.912 424.753,164.698 L 424.753,165.838 C 424.183,166.052 423.541,166.194 422.758,166.194 C 420.976,166.194 419.978,165.197 419.978,163.985 C 419.978,161.277 423.755,161.847 423.755,160.065 C 423.755,159.139 422.971,158.783 422.045,158.783 C 421.118,158.783 420.477,159.068 419.978,159.353 L 419.622,158.355 Z M 410.357,157.856 L 411.64,157.856 L 411.64,163.843 C 412.424,164.484 413.208,165.054 414.134,165.054 C 415.274,165.054 415.631,164.128 415.631,162.916 L 415.631,157.856 L 416.914,157.856 L 416.914,163.344 C 416.914,165.41 415.773,166.194 414.49,166.194 C 413.421,166.194 412.495,165.695 411.64,164.912 L 411.497,165.981 L 410.428,165.981 L 410.428,157.856 Z M 405.155,157.856 L 406.437,157.856 L 406.437,169.188 L 405.155,169.188 L 405.155,157.856 Z M 393.182,158.783 C 391.329,158.783 390.188,159.994 390.188,161.918 C 390.188,163.985 391.542,165.197 393.182,165.197 C 393.752,165.197 394.037,165.125 394.464,164.983 L 394.464,159.068 C 394.108,158.854 393.609,158.783 393.182,158.783 M 393.11,157.714 C 394.179,157.714 395.106,157.927 395.676,158.284 L 395.676,170.114 L 394.393,170.114 L 394.393,166.123 C 393.966,166.266 393.467,166.266 393.039,166.266 C 390.687,166.266 388.834,164.555 388.834,161.918 C 388.906,159.068 390.758,157.714 393.11,157.714 M 379.284,157.856 L 380.567,157.856 L 380.567,163.843 C 381.351,164.484 382.135,165.054 383.062,165.054 C 384.202,165.054 384.558,164.128 384.558,162.916 L 384.558,157.856 L 385.841,157.856 L 385.841,163.344 C 385.841,165.41 384.701,166.194 383.418,166.194 C 382.349,166.194 381.422,165.695 380.567,164.912 L 380.425,165.981 L 379.356,165.981 L 379.356,157.856 Z M 371.73,157.714 C 372.799,157.714 373.726,158.212 374.438,158.854 L 374.652,157.927 L 375.792,157.927 C 375.721,158.355 375.65,159.068 375.65,160.707 L 375.65,166.123 L 374.367,166.123 L 374.367,160.065 C 373.939,159.495 373.013,158.925 372.086,158.925 C 371.445,158.925 370.946,159.21 370.732,159.852 C 370.59,160.208 370.59,160.564 370.59,161.134 L 370.59,166.123 L 369.307,166.123 L 369.307,160.778 C 369.307,160.137 369.378,159.709 369.521,159.281 C 369.948,158.07 370.946,157.714 371.73,157.714 M 353.913,157.856 L 355.196,157.856 L 355.196,163.843 C 355.98,164.484 356.764,165.054 357.69,165.054 C 358.831,165.054 359.187,164.128 359.187,162.916 L 359.187,157.856 L 360.47,157.856 L 360.47,163.344 C 360.47,165.41 359.33,166.194 358.047,166.194 C 356.978,166.194 356.051,165.695 355.196,164.912 L 355.054,165.981 L 353.985,165.981 L 353.985,157.856 Z M 345.432,162.702 C 345.432,164.056 346.216,165.197 347.499,165.197 C 348.782,165.197 349.352,163.985 349.423,162.702 L 345.432,162.702 Z M 350.706,161.705 L 350.706,161.99 C 350.706,164.555 349.495,166.194 347.428,166.194 C 345.432,166.194 344.078,164.484 344.078,161.99 C 344.078,159.638 345.361,157.642 347.927,157.642 C 348.853,157.642 349.78,157.927 350.492,158.355 L 350.065,159.281 C 349.495,158.996 348.853,158.711 348.069,158.711 C 346.359,158.711 345.361,159.994 345.361,161.705 L 350.706,161.705 Z M 334.529,157.856 L 335.811,157.856 L 335.811,163.843 C 336.595,164.484 337.379,165.054 338.306,165.054 C 339.446,165.054 339.802,164.128 339.802,162.916 L 339.802,157.856 L 341.085,157.856 L 341.085,163.344 C 341.085,165.41 339.945,166.194 338.662,166.194 C 337.593,166.194 336.667,165.695 335.811,164.983 L 335.811,170.043 L 334.529,170.043 L 334.529,157.856 Z M 329.255,157.714 C 330.253,157.714 331.179,158.07 331.749,158.426 L 331.322,159.353 C 330.823,159.068 330.253,158.783 329.326,158.783 C 327.687,158.783 326.618,159.923 326.618,161.918 C 326.618,163.771 327.687,165.125 329.397,165.125 C 330.181,165.125 330.823,164.912 331.393,164.555 L 331.393,165.695 C 330.894,165.981 330.181,166.194 329.326,166.194 C 326.832,166.194 325.264,164.199 325.264,161.847 C 325.406,159.566 326.76,157.714 329.255,157.714 M 317.353,158.355 C 317.852,157.999 318.707,157.642 319.776,157.642 C 321.415,157.642 322.769,158.426 322.769,160.065 C 322.769,162.845 318.921,162.203 318.921,163.985 C 318.921,164.84 319.705,165.125 320.489,165.125 C 321.273,165.125 321.914,164.912 322.484,164.698 L 322.484,165.838 C 321.914,166.052 321.273,166.194 320.489,166.194 C 318.707,166.194 317.709,165.197 317.709,163.985 C 317.709,161.277 321.487,161.847 321.487,160.065 C 321.487,159.139 320.703,158.783 319.776,158.783 C 318.85,158.783 318.208,159.068 317.709,159.353 L 317.353,158.355 Z M 308.017,157.856 L 309.3,157.856 L 309.3,163.843 C 310.084,164.484 310.868,165.054 311.794,165.054 C 312.935,165.054 313.291,164.128 313.291,162.916 L 313.291,157.856 L 314.574,157.856 L 314.574,163.344 C 314.574,165.41 313.433,166.194 312.151,166.194 C 311.082,166.194 310.155,165.695 309.3,164.912 L 309.157,165.981 L 308.088,165.981 L 308.088,157.856 Z M 299.608,162.702 C 299.608,164.056 300.391,165.197 301.674,165.197 C 302.957,165.197 303.527,163.985 303.599,162.702 L 299.608,162.702 Z M 304.881,161.705 L 304.881,161.99 C 304.881,164.555 303.67,166.194 301.603,166.194 C 299.608,166.194 298.253,164.484 298.253,161.99 C 298.253,159.638 299.536,157.642 302.102,157.642 C 303.028,157.642 303.955,157.927 304.667,158.355 L 304.24,159.281 C 303.67,158.996 303.028,158.711 302.244,158.711 C 300.534,158.711 299.536,159.994 299.536,161.705 L 304.881,161.705 Z M 284.071,157.856 L 285.354,157.856 L 285.354,165.197 C 285.354,165.767 285.354,166.551 285.354,167.05 L 285.354,167.05 C 285.568,166.622 285.853,166.123 286.138,165.767 L 289.202,161.206 L 289.844,161.206 L 292.623,165.695 C 292.837,166.052 293.193,166.622 293.407,167.05 L 293.407,167.05 C 293.407,166.479 293.407,165.695 293.407,165.125 L 293.407,157.856 L 294.69,157.856 L 294.69,169.188 L 293.479,169.188 L 290.485,164.484 C 290.058,163.771 289.701,163.272 289.416,162.773 L 289.416,162.773 C 289.131,163.272 288.846,163.7 288.347,164.413 L 285.211,169.188 L 284,169.188 L 284,157.856 Z M 273.452,157.714 C 274.236,157.714 275.02,157.999 275.519,158.355 L 275.092,159.281 C 274.735,159.068 274.308,158.854 273.737,158.854 C 273.167,158.854 272.882,159.139 272.882,159.852 L 272.882,165.054 L 274.949,165.054 L 275.305,166.123 L 272.882,166.123 L 272.882,168.404 L 271.599,167.976 L 271.599,166.123 L 270.245,166.123 L 270.245,165.054 L 271.599,165.054 L 271.599,159.638 C 271.599,158.355 272.312,157.714 273.452,157.714 M 262.691,162.702 C 262.691,164.056 263.475,165.197 264.758,165.197 C 266.041,165.197 266.611,163.985 266.682,162.702 L 262.691,162.702 Z M 268.036,161.705 L 268.036,161.99 C 268.036,164.555 266.825,166.194 264.758,166.194 C 262.762,166.194 261.408,164.484 261.408,161.99 C 261.408,159.638 262.691,157.642 265.257,157.642 C 266.183,157.642 267.11,157.927 267.822,158.355 L 267.395,159.281 C 266.825,158.996 266.183,158.711 265.399,158.711 C 263.689,158.711 262.691,159.994 262.691,161.705 L 268.036,161.705 Z M 255.707,158.783 C 253.854,158.783 252.714,159.994 252.714,161.918 C 252.714,163.985 254.068,165.197 255.707,165.197 C 256.277,165.197 256.562,165.125 256.99,164.983 L 256.99,159.068 C 256.633,158.854 256.134,158.783 255.707,158.783 M 255.636,157.714 C 256.705,157.714 257.631,157.927 258.201,158.284 L 258.201,170.114 L 256.918,170.114 L 256.918,166.123 C 256.491,166.266 255.992,166.266 255.564,166.266 C 253.213,166.266 251.36,164.555 251.36,161.918 C 251.36,159.068 253.284,157.714 255.636,157.714 M 241.81,157.856 L 243.092,157.856 L 243.092,163.843 C 243.876,164.484 244.66,165.054 245.587,165.054 C 246.727,165.054 247.083,164.128 247.083,162.916 L 247.083,157.856 L 248.366,157.856 L 248.366,163.344 C 248.366,165.41 247.226,166.194 245.943,166.194 C 244.874,166.194 243.948,165.695 243.092,164.912 L 242.95,165.981 L 241.881,165.981 L 241.881,157.856 Z M 237.534,167.833 C 238.033,167.833 238.389,168.19 238.389,168.689 C 238.389,169.188 238.033,169.544 237.534,169.544 C 237.035,169.544 236.678,169.188 236.678,168.689 C 236.678,168.19 237.035,167.833 237.534,167.833 M 236.892,157.856 L 238.175,157.856 L 238.175,165.981 L 236.892,165.981 L 236.892,157.856 Z M 229.338,158.783 C 228.982,158.783 228.554,158.854 228.126,158.996 L 228.126,164.698 C 228.411,164.84 228.91,165.125 229.765,165.125 C 231.405,165.125 232.26,163.914 232.26,162.132 C 232.402,160.065 231.12,158.783 229.338,158.783 M 229.195,157.714 C 231.761,157.714 233.685,159.353 233.685,162.203 C 233.685,164.84 232.046,166.266 230.051,166.266 C 229.267,166.266 228.768,166.123 228.198,165.909 L 228.198,170.114 L 226.915,170.114 L 226.915,158.212 C 227.414,157.927 228.198,157.714 229.195,157.714 M 219.931,157.856 L 221.213,157.856 L 221.213,163.843 C 221.997,164.626 222.567,164.983 223.209,164.983 C 223.494,164.983 223.708,164.912 223.922,164.84 L 224.349,165.981 C 224.135,166.123 223.779,166.194 223.494,166.194 C 222.781,166.194 222.069,165.909 221.213,164.983 L 221.071,166.052 L 220.002,166.052 L 220.002,157.856 Z M 211.45,162.702 C 211.45,164.056 212.234,165.197 213.517,165.197 C 214.799,165.197 215.37,163.985 215.441,162.702 L 211.45,162.702 Z M 216.795,161.705 L 216.795,161.99 C 216.795,164.555 215.583,166.194 213.517,166.194 C 211.521,166.194 210.167,164.484 210.167,161.99 C 210.167,159.638 211.45,157.642 214.015,157.642 C 214.942,157.642 215.868,157.927 216.581,158.355 L 216.153,159.281 C 215.583,158.996 214.942,158.711 214.158,158.711 C 212.448,158.711 211.45,159.994 211.45,161.705 L 216.795,161.705 Z M 204.038,157.785 L 205.107,157.785 L 208.243,165.981 L 206.96,165.981 L 204.679,159.495 L 204.679,159.495 L 202.328,165.981 L 200.973,165.981 L 204.038,157.785 Z" fill="#c4c4c4" marker-start="none" marker-end="none"/>
  </g>
 </g>
</svg>
