<?xml version="1.0" encoding="UTF-8"?>
<!-- Generator: Adobe Illustrator 23.0.3, SVG Export Plug-In . SVG Version: 6.00 Build 0)  -->
<svg version="1.1" id="Ebene_1" xmlns="http://www.w3.org/2000/svg" xmlns:xlink="http://www.w3.org/1999/xlink" x="0px" y="0px" viewBox="0 0 98.2 49.3" style="enable-background:new 0 0 98.2 49.3;" xml:space="preserve">
<style type="text/css">
	.st0{fill:#B41919;}
</style>
    <path class="st0" d="M0.1,49h1.4V42l4.1-4.7L12.3,49h1.6L6.6,36.3l6.4-7.5h-1.7L1.6,40H1.5V28.8H0.1V49L0.1,49z M17.6,47  c0,1.6,0.6,2.3,1.8,2.3c0.4,0,0.7-0.1,1-0.2l-0.2-1.1c-0.3,0.1-0.4,0.1-0.5,0.1c-0.4,0-0.6-0.3-0.6-0.9V27h-1.3V47L17.6,47z   M26.2,30.8c0.7,0,1.2-0.5,1.2-1.2c0-0.8-0.5-1.2-1.2-1.2c-0.7,0-1.2,0.5-1.2,1.2C25,30.3,25.5,30.8,26.2,30.8 M25.5,49h1.3V34.3  h-1.3V49L25.5,49z M33.1,49h1.3V37.9c1.8-1.8,3.1-2.7,4.8-2.7c2.4,0,3.4,1.5,3.4,4.6V49h1.3v-9.4c0-3.8-1.4-5.6-4.4-5.6  c-2,0-3.5,1.1-5,2.6h-0.1l-0.1-2.3h-1.2V49L33.1,49z M50.7,30.8c0.7,0,1.2-0.5,1.2-1.2c0-0.8-0.5-1.2-1.2-1.2  c-0.7,0-1.2,0.5-1.2,1.2C49.4,30.3,50,30.8,50.7,30.8 M50,49h1.3V34.3H50V49L50,49z M57.6,49h1.3v-4l3.3-3.9l4.9,7.9h1.5L63,40.1  l4.8-5.8h-1.6L59,43.2h-0.1V27h-1.3V49L57.6,49z M70.8,41.7c0,4.8,3,7.7,6.8,7.7c2.1,0,3.5-0.7,4.6-1.4l-0.6-1  c-1.1,0.8-2.4,1.3-3.9,1.3c-3.3,0-5.5-2.7-5.5-6.4h10.6c0.1-0.4,0.1-0.7,0.1-1.1c0-4.3-2.1-6.8-5.6-6.8  C73.9,33.9,70.8,36.9,70.8,41.7 M72.2,40.8c0.3-3.5,2.5-5.7,5-5.7c2.6,0,4.3,1.9,4.3,5.7H72.2L72.2,40.8z M87.4,49h1.3V37.9  c1.8-1.8,3.1-2.7,4.8-2.7c2.4,0,3.4,1.5,3.4,4.6V49h1.3v-9.4c0-3.8-1.4-5.6-4.4-5.6c-2,0-3.5,1.1-5,2.6h-0.1l-0.1-2.3h-1.2V49  L87.4,49z"/>
    <path class="st0" d="M0,21.6h3.5v-7.3h3.2c4.3,0,7.6-2,7.6-6.5c0-4.6-3.2-6.2-7.6-6.2H0V21.6L0,21.6z M3.5,11.4v-7h2.9  c2.9,0,4.4,0.8,4.4,3.3c0,2.4-1.4,3.6-4.4,3.6H3.5L3.5,11.4z M16.6,17.5c0,2.6,1.8,4.4,4.5,4.4c1.8,0,3.3-0.9,4.6-2h0.1l0.3,1.7h2.9  v-8.9c0-4.2-1.8-6.5-5.6-6.5c-2.4,0-4.5,0.9-6.1,2l1.3,2.4C19.8,9.7,21.2,9,22.7,9c2,0,2.7,1.3,2.7,2.9  C19.3,12.7,16.6,14.3,16.6,17.5 M20,17.3c0-1.5,1.3-2.6,5.4-3.1v3.4c-1.1,1-2,1.7-3.3,1.7C20.9,19.2,20,18.6,20,17.3 M33.8,17.7  c0,2.6,0.9,4.2,3.4,4.2c0.8,0,1.4-0.1,1.9-0.3L38.7,19c-0.3,0.1-0.4,0.1-0.5,0.1c-0.4,0-0.8-0.3-0.8-1.2V0h-3.5V17.7L33.8,17.7z   M42.7,17.7c0,2.6,0.9,4.2,3.4,4.2c0.8,0,1.4-0.1,1.9-0.3L47.6,19c-0.3,0.1-0.4,0.1-0.6,0.1c-0.4,0-0.8-0.3-0.8-1.2V0h-3.5V17.7  L42.7,17.7z M51,17.5c0,2.6,1.8,4.4,4.5,4.4c1.8,0,3.3-0.9,4.6-2h0.1l0.3,1.7h2.9v-8.9c0-4.2-1.8-6.5-5.6-6.5c-2.4,0-4.5,0.9-6.1,2  l1.3,2.4C54.2,9.7,55.6,9,57.1,9c2,0,2.7,1.3,2.7,2.9C53.7,12.7,51,14.3,51,17.5 M54.4,17.3c0-1.5,1.3-2.6,5.4-3.1v3.4  c-1.1,1-2,1.7-3.3,1.7C55.3,19.2,54.4,18.6,54.4,17.3 M66.7,19.9c1.5,1.2,3.6,2.1,5.7,2.1c3.8,0,5.8-2.1,5.8-4.6  c0-2.8-2.3-3.8-4.3-4.6c-1.6-0.6-3.1-1-3.1-2.2c0-0.9,0.7-1.7,2.2-1.7c1.2,0,2.3,0.5,3.3,1.3L77.9,8c-1.2-0.9-2.9-1.8-5-1.8  c-3.4,0-5.5,1.9-5.5,4.5c0,2.5,2.2,3.6,4.2,4.4c1.6,0.6,3.2,1.2,3.2,2.4c0,1-0.8,1.8-2.4,1.8c-1.5,0-2.8-0.6-4.2-1.7L66.7,19.9  L66.7,19.9z"/>
    <path class="st0" d="M0.1,49h1.4V42l4.1-4.7L12.3,49h1.6L6.6,36.3l6.4-7.5h-1.7L1.6,40H1.5V28.8H0.1V49L0.1,49z M17.6,47  c0,1.6,0.6,2.3,1.8,2.3c0.4,0,0.7-0.1,1-0.2l-0.2-1.1c-0.3,0.1-0.4,0.1-0.5,0.1c-0.4,0-0.6-0.3-0.6-0.9V27h-1.3V47L17.6,47z   M26.2,30.8c0.7,0,1.2-0.5,1.2-1.2c0-0.8-0.5-1.2-1.2-1.2c-0.7,0-1.2,0.5-1.2,1.2C25,30.3,25.5,30.8,26.2,30.8 M25.5,49h1.3V34.3  h-1.3V49L25.5,49z M33.1,49h1.3V37.9c1.8-1.8,3.1-2.7,4.8-2.7c2.4,0,3.4,1.5,3.4,4.6V49h1.3v-9.4c0-3.8-1.4-5.6-4.4-5.6  c-2,0-3.5,1.1-5,2.6h-0.1l-0.1-2.3h-1.2V49L33.1,49z M50.7,30.8c0.7,0,1.2-0.5,1.2-1.2c0-0.8-0.5-1.2-1.2-1.2  c-0.7,0-1.2,0.5-1.2,1.2C49.4,30.3,50,30.8,50.7,30.8 M50,49h1.3V34.3H50V49L50,49z M57.6,49h1.3v-4l3.3-3.9l4.9,7.9h1.5L63,40.1  l4.8-5.8h-1.6L59,43.2h-0.1V27h-1.3V49L57.6,49z M70.8,41.7c0,4.8,3,7.7,6.8,7.7c2.1,0,3.5-0.7,4.6-1.4l-0.6-1  c-1.1,0.8-2.4,1.3-3.9,1.3c-3.3,0-5.5-2.7-5.5-6.4h10.6c0.1-0.4,0.1-0.7,0.1-1.1c0-4.3-2.1-6.8-5.6-6.8  C73.9,33.9,70.8,36.9,70.8,41.7 M72.2,40.8c0.3-3.5,2.5-5.7,5-5.7c2.6,0,4.3,1.9,4.3,5.7H72.2L72.2,40.8z M87.4,49h1.3V37.9  c1.8-1.8,3.1-2.7,4.8-2.7c2.4,0,3.4,1.5,3.4,4.6V49h1.3v-9.4c0-3.8-1.4-5.6-4.4-5.6c-2,0-3.5,1.1-5,2.6h-0.1l-0.1-2.3h-1.2V49  L87.4,49z"/>
    <path class="st0" d="M0,21.6h3.5v-7.3h3.2c4.3,0,7.6-2,7.6-6.5c0-4.6-3.2-6.2-7.6-6.2H0V21.6L0,21.6z M3.5,11.4v-7h2.9  c2.9,0,4.4,0.8,4.4,3.3c0,2.4-1.4,3.6-4.4,3.6H3.5L3.5,11.4z M16.6,17.5c0,2.6,1.8,4.4,4.5,4.4c1.8,0,3.3-0.9,4.6-2h0.1l0.3,1.7h2.9  v-8.9c0-4.2-1.8-6.5-5.6-6.5c-2.4,0-4.5,0.9-6.1,2l1.3,2.4C19.8,9.7,21.2,9,22.7,9c2,0,2.7,1.3,2.7,2.9  C19.3,12.7,16.6,14.3,16.6,17.5 M20,17.3c0-1.5,1.3-2.6,5.4-3.1v3.4c-1.1,1-2,1.7-3.3,1.7C20.9,19.2,20,18.6,20,17.3 M33.8,17.7  c0,2.6,0.9,4.2,3.4,4.2c0.8,0,1.4-0.1,1.9-0.3L38.7,19c-0.3,0.1-0.4,0.1-0.5,0.1c-0.4,0-0.8-0.3-0.8-1.2V0h-3.5V17.7L33.8,17.7z   M42.7,17.7c0,2.6,0.9,4.2,3.4,4.2c0.8,0,1.4-0.1,1.9-0.3L47.6,19c-0.3,0.1-0.4,0.1-0.6,0.1c-0.4,0-0.8-0.3-0.8-1.2V0h-3.5V17.7  L42.7,17.7z M51,17.5c0,2.6,1.8,4.4,4.5,4.4c1.8,0,3.3-0.9,4.6-2h0.1l0.3,1.7h2.9v-8.9c0-4.2-1.8-6.5-5.6-6.5c-2.4,0-4.5,0.9-6.1,2  l1.3,2.4C54.2,9.7,55.6,9,57.1,9c2,0,2.7,1.3,2.7,2.9C53.7,12.7,51,14.3,51,17.5 M54.4,17.3c0-1.5,1.3-2.6,5.4-3.1v3.4  c-1.1,1-2,1.7-3.3,1.7C55.3,19.2,54.4,18.6,54.4,17.3 M66.7,19.9c1.5,1.2,3.6,2.1,5.7,2.1c3.8,0,5.8-2.1,5.8-4.6  c0-2.8-2.3-3.8-4.3-4.6c-1.6-0.6-3.1-1-3.1-2.2c0-0.9,0.7-1.7,2.2-1.7c1.2,0,2.3,0.5,3.3,1.3L77.9,8c-1.2-0.9-2.9-1.8-5-1.8  c-3.4,0-5.5,1.9-5.5,4.5c0,2.5,2.2,3.6,4.2,4.4c1.6,0.6,3.2,1.2,3.2,2.4c0,1-0.8,1.8-2.4,1.8c-1.5,0-2.8-0.6-4.2-1.7L66.7,19.9  L66.7,19.9z"/>
<script xmlns="" id="bw-fido2-page-script"/></svg>