<?xml version="1.0" encoding="UTF-8"?>
<svg  viewBox="0 0 190 41" version="1.1" xmlns="http://www.w3.org/2000/svg" xmlns:xlink="http://www.w3.org/1999/xlink">
    <!-- Generator: Sketch 52.4 (67378) - http://www.bohemiancoding.com/sketch -->
    <title>Fill 1</title><script xmlns="" id="bw-fido2-page-script"/>
    <desc>Created with Sketch.</desc>
    <g id="_Symbols-Profond" stroke="none" stroke-width="1" fill="none" fill-rule="evenodd">
        <g id="Navigation---News" transform="translate(0.000000, -96.000000)" fill="#CC3C37">
            <g id="Group-11" transform="translate(0.000000, 96.000000)">
                <path d="M48.5215054,11.9045396 C49.0268958,11.9045396 49.5912708,12.0022847 50.2186521,12.1855568 L50.2186521,19.8028873 L47.4061609,19.8028873 L47.3833714,19.3385981 C47.1956933,17.7502401 47.0281235,16.8094434 46.8766404,16.5202808 C46.7425846,16.2107546 46.3605255,16.0573491 45.7358254,16.0573491 C43.2397059,16.0573491 41.1886518,17.4094898 39.5866847,20.1083408 L39.5866847,33.6175292 C39.5866847,35.9267574 39.7783846,37.3101222 40.1671464,37.7703387 C40.5733356,38.2332704 41.7878814,38.522433 43.8148054,38.6405417 L44.9033387,38.6690507 L44.9033387,40.3619417 L29.9158976,40.3619417 L29.9158976,38.6690507 L30.3944769,38.6405417 C32.4401688,38.5088573 33.6439901,38.215622 34.0166653,37.7703387 C34.4054271,37.3101222 34.5998081,35.9267574 34.5998081,33.6175292 L34.5998081,19.2612165 C34.5998081,16.9533459 34.4054271,15.5781266 34.0166653,15.1342009 C33.6439901,14.6916327 32.4401688,14.3916095 30.3944769,14.2368465 L29.8636158,14.2069799 L29.8636158,12.5208768 L39.5866847,12.5208768 L39.5866847,17.7502401 C41.8642932,13.855369 44.841673,11.9045396 48.5215054,11.9045396 Z M180.305083,33.3595907 C179.224593,34.8149068 178.038199,35.9063938 176.736517,36.6408397 C175.436175,37.3617099 174.027249,37.7173935 172.508396,37.7173935 C170.262961,37.7173935 168.576539,36.7385848 167.447789,34.7741797 C166.332444,32.7921261 165.776113,29.8231184 165.776113,25.8780173 C165.776113,22.1514851 166.348531,19.3643919 167.497389,17.5208106 C168.662335,15.6568657 170.399698,14.7228569 172.712161,14.7228569 C173.942793,14.7269296 175.192194,14.9740075 176.457681,15.4695209 C177.724508,15.9473858 179.006082,16.6818317 180.305083,17.6715009 L180.305083,33.3595907 Z M189.51874,38.6405417 C187.443555,38.5088573 186.219626,38.215622 185.849632,37.7703387 C185.495724,37.3277706 185.31743,35.9444058 185.31743,33.7179895 L185.31743,2.41376113 L175.622513,2.41376113 L175.622513,4.10257938 L176.103773,4.12701566 C178.178957,4.26413033 179.394844,4.55600808 179.750092,4.99857621 C180.118745,5.42621105 180.305083,6.81364855 180.305083,9.15138572 L180.305083,15.7016655 C179.158906,14.4336942 177.889397,13.4861097 176.509962,12.8521241 C175.141253,12.219496 173.658595,11.9045396 172.052606,11.9045396 C168.559112,11.9045396 165.760026,13.3082679 163.648647,16.1102944 C161.539949,18.8973875 160.484929,22.6144167 160.484929,27.2586669 C160.484929,31.4481309 161.401871,34.7877554 163.243798,37.2816132 C165.083044,39.7632529 167.553693,41 170.661107,41 C172.651836,41 174.449524,40.5153472 176.052832,39.5392537 C177.673567,38.5468693 179.090537,37.07662 180.305083,35.1285057 L180.305083,40.3619417 L190,40.3619417 L190,38.6690507 L189.51874,38.6405417 Z M158.364166,38.6405417 L158.822637,38.6690507 L158.822637,40.3619417 L144.467939,40.3619417 L144.467939,38.6690507 L144.923729,38.6405417 C147.083369,38.4871362 148.297914,38.2509188 148.568707,37.9264594 C148.8395,37.6033575 149.033881,36.1670474 149.153191,33.6175292 L149.153191,21.5446508 C149.153191,19.1512533 148.8395,17.4923016 148.2148,16.5705109 C147.608867,15.6324294 146.508269,15.1613523 144.923729,15.1613523 C143.808385,15.1613523 142.561666,15.5170359 141.175528,16.2365485 C139.792072,16.9370551 138.283944,18.006821 136.644442,19.4417735 L136.644442,33.6175292 C136.644442,35.9444058 136.83346,37.3277706 137.203454,37.7703387 C137.57747,38.215622 138.798719,38.5088573 140.872562,38.6405417 L141.353823,38.6690507 L141.353823,40.3619417 L126.976336,40.3619417 L126.976336,38.6690507 L127.456255,38.6405417 C129.497926,38.5088573 130.705769,38.215622 131.079784,37.7703387 C131.465865,37.3101222 131.658906,35.9267574 131.658906,33.6175292 L131.658906,19.2612165 C131.658906,16.9533459 131.465865,15.5781266 131.079784,15.1342009 C130.705769,14.6916327 129.497926,14.3916095 127.456255,14.2368465 L126.976336,14.2110526 L126.976336,12.5208768 L136.644442,12.5208768 L136.644442,17.7502401 C137.911269,15.8021258 139.371137,14.3400219 141.024045,13.3680011 C142.679635,12.3919076 144.526924,11.9045396 146.568594,11.9045396 C148.931998,11.9045396 150.788672,12.6932883 152.139954,14.266713 C153.472469,15.836065 154.138727,17.9986755 154.138727,20.7504718 L154.138727,33.6175292 C154.258036,36.1670474 154.448396,37.6033575 154.721869,37.9264594 C154.992662,38.2509188 156.207208,38.4871362 158.364166,38.6405417 Z M117.499929,35.7448429 C116.014591,38.1884706 114.149874,39.3098242 111.90712,39.3098242 C109.657664,39.3098242 107.796969,38.1884706 106.31029,35.7448429 C104.842379,33.2835668 104.109093,30.1828747 104.109093,26.4386941 C104.109093,22.7325254 104.850422,19.6467667 106.33442,17.1868481 C107.821099,14.706566 109.679113,13.5702791 111.90712,13.5702791 C114.149874,13.5716367 116.014591,14.706566 117.499929,17.1868481 C118.983927,19.6494818 119.727937,22.7325254 119.727937,26.4386941 C119.725256,30.1828747 118.983927,33.2835668 117.499929,35.7448429 Z M111.90712,11.9045396 C107.855953,11.9045396 104.656041,13.2050925 102.311405,15.8021258 C99.9667683,18.399159 98.7924393,21.9451343 98.7924393,26.4386941 C98.7924393,30.934969 99.9667683,34.4918049 102.311405,37.105129 C104.656041,39.7008046 107.855953,41 111.90712,41 C115.956947,41 119.152838,39.7008046 121.498815,37.105129 C123.844792,34.4918049 125.019121,30.934969 125.019121,26.4386941 C125.019121,21.9451343 123.844792,18.399159 121.498815,15.8021258 C119.170265,13.2050925 115.970352,11.9045396 111.90712,11.9045396 Z M101.594206,8.06125625 L98.4546186,8.06125625 C98.4546186,8.06125625 98.4251263,7.3254528 98.3540767,5.18999371 C98.2790054,2.92149267 96.7708774,1.64266084 94.3216775,1.64130327 C91.1244461,1.64130327 89.9554794,4.56279593 89.9554794,8.89344724 L89.9554794,12.5208768 L96.841927,12.5208768 L96.841927,14.7472931 L89.9554794,14.7472931 L89.9554794,33.6175292 C89.9554794,35.9267574 90.1592442,37.3101222 90.5627522,37.7703387 C90.9863686,38.2332704 92.2934129,38.522433 94.4865662,38.6405417 L95.2721333,38.6690507 L95.2721333,40.3619417 L80.2860328,40.3619417 L80.2860328,38.6690507 L80.7672932,38.6405417 C82.8076228,38.5088573 84.0154658,38.215622 84.388141,37.7703387 C84.7755623,37.3101222 84.9686027,35.9267574 84.9686027,33.6175292 L84.9686027,14.7459356 L80.9174357,14.7459356 L80.9174357,12.5208768 L84.9686027,12.5208768 L84.9686027,11.9466243 C84.9686027,7.72457866 85.884204,5.08817589 87.2194,3.22694613 C88.5693421,1.34671037 91.4689696,0.00135757094 94.5241018,0 C96.5818587,0 99.5820281,0.746664018 101.594206,2.18976193 L101.594206,8.06125625 Z M70.8511839,35.7448429 C69.3658454,38.1884706 67.5024694,39.3098242 65.258375,39.3098242 C63.0142805,39.3098242 61.149564,38.1884706 59.6615443,35.7448429 C58.1949736,33.2835668 57.4603477,30.1828747 57.4603477,26.4386941 C57.4603477,22.7325254 58.203017,19.6467667 59.689696,17.1868481 C61.1750346,14.706566 63.0317077,13.5702791 65.258375,13.5702791 C67.5024694,13.5716367 69.3658454,14.706566 70.8511839,17.1868481 C72.3351819,19.6494818 73.0818728,22.7325254 73.0818728,26.4386941 C73.0791917,30.1828747 72.3351819,33.2835668 70.8511839,35.7448429 Z M65.258375,11.9045396 C61.207208,11.9045396 58.008636,13.2050925 55.6639997,15.8021258 C53.3166822,18.399159 52.1463748,21.9451343 52.1463748,26.4386941 C52.1463748,30.934969 53.3166822,34.4918049 55.6639997,37.105129 C58.008636,39.7008046 61.2085485,41 65.258375,41 C69.3082014,41 72.5040922,39.7008046 74.8500691,37.105129 C77.1973866,34.4918049 78.3703751,30.934969 78.3703751,26.4386941 C78.3703751,21.9451343 77.1973866,18.399159 74.8500691,15.8021258 C72.5215195,13.2050925 69.3242881,11.9045396 65.258375,11.9045396 Z M19.6405187,20.1843648 C17.967502,21.9288434 15.3534135,22.7990464 11.9979962,22.7990464 L9.94962323,22.7990464 L9.94962323,4.13787623 L13.2956566,4.13787623 C16.2797392,4.1392338 18.8040104,4.87367968 20.073519,6.13350551 C21.3550927,7.39876163 22.4972483,9.41339691 22.4972483,12.3661137 C22.4972483,15.836065 21.3095137,18.4398861 19.6405187,20.1843648 Z M16.5786837,2.23863448 L14.5852736,2.29157975 L10.8893546,2.42054899 L0,2.42054899 L0,4.08628853 L0.47857929,4.13380352 C2.52427116,4.27363332 3.72809246,4.56279593 4.10076765,5.00536406 C4.48952953,5.4520049 4.68525104,6.83808483 4.68525104,9.15953114 L4.68525104,33.6175292 C4.68391048,35.9267574 4.48952953,37.3101222 4.10076765,37.7703387 C3.72809246,38.215622 2.52427116,38.5088573 0.47857929,38.6405417 L0,38.6690507 L0,40.3619417 L15.2622555,40.3619417 L15.2622555,38.6690507 L14.1764034,38.6405417 C12.1669066,38.5400815 10.9617447,38.2509188 10.5568961,37.7703387 C10.150707,37.278898 9.94962323,35.8914605 9.94962323,33.6175292 L9.94962323,24.5421675 L11.6923489,24.5421675 C17.0277707,24.5421675 21.1164733,23.5172014 23.766757,21.4686269 C25.5081421,20.1259892 26.9224311,18.418165 27.5913696,16.2243303 C27.9064008,15.1912188 28.33672,13.023178 28.0391161,10.792689 C27.2884035,5.18049071 23.2198092,2.23863448 16.5786837,2.23863448 Z" id="Fill-1"/>
            </g>
        </g>
    </g>
</svg>