<?xml version="1.0" standalone="no"?>
<!DOCTYPE svg PUBLIC "-//W3C//DTD SVG 1.1//EN" "http://www.w3.org/Graphics/SVG/1.1/DTD/svg11.dtd">
<!--Generator: Xara Designer (www.xara.com), SVG filter version: 6.6.0.9-->
<svg fill="none" fill-rule="evenodd" stroke="black" stroke-width="0.501" stroke-linejoin="bevel" stroke-miterlimit="10" font-family="Times New Roman" font-size="16" style="font-variant-ligatures:none" xmlns:xlink="http://www.w3.org/1999/xlink" xmlns="http://www.w3.org/2000/svg" version="1.1" overflow="visible"  viewBox="3 -790.158 162.009 76.908">
 <defs>
  <style type="text/css">@import url('https://themes.googleusercontent.com/fonts/css?family=Open Sans:400,600');</style>
 </defs>
 <g id="Layer 1" transform="scale(1 -1)">
  <path d="M 15.405,762.865 L 15.524,762.865 C 17.461,765.159 20.46,766.393 23.106,766.393 C 26.694,766.393 29.28,764.923 30.691,761.866 C 32.925,764.688 36.452,766.393 39.804,766.393 C 47.149,766.393 48.092,760.867 47.093,754.576 L 44.271,736.588 L 36.041,736.588 L 38.452,751.756 C 38.862,754.576 39.92,759.808 35.864,759.808 C 31.395,759.808 30.456,753.753 29.986,750.756 L 27.751,736.588 L 19.519,736.588 L 21.815,751.227 C 22.284,754.049 23.578,759.808 19.287,759.808 C 14.699,759.808 13.937,753.814 13.467,750.756 L 11.232,736.588 L 3,736.588 L 7.585,765.452 L 15.819,765.452 L 15.405,762.865 Z" fill="#000000" stroke-linejoin="miter" fill-rule="nonzero" stroke-width="0.25" stroke="none" marker-start="none" marker-end="none"/>
  <path d="M 73.487,751.05 C 74.078,754.93 72.198,759.103 67.964,759.103 C 63.73,759.103 60.437,754.93 59.849,751.05 C 59.262,747.17 61.143,742.938 65.378,742.938 C 69.608,742.938 72.9,747.17 73.487,751.05 Z M 62.556,762.807 C 64.788,765.042 68.022,766.393 71.081,766.393 C 79.251,766.393 83.074,758.751 81.836,751.169 C 80.601,743.291 74.547,735.648 66.022,735.648 C 63.083,735.648 60.204,736.94 58.911,739.293 L 58.793,739.293 L 55.223,716.207 L 46.992,716.207 L 54.737,765.453 L 62.967,765.453 L 62.556,762.807 Z" fill="#000000" stroke-linejoin="miter" fill-rule="nonzero" stroke-width="0.25" stroke="none" marker-start="none" marker-end="none"/>
  <path d="M 96.711,736.001 L 104.768,749.193 L 97.193,749.193 L 97.182,749.168 L 97.177,749.193 L 97.166,749.193 L 97.169,749.218 L 93.006,765.453 L 83.953,765.453 L 92.477,736.001 L 96.711,736.001 Z" fill="#000000" stroke-linejoin="miter" fill-rule="nonzero" stroke-width="0.25" stroke="none" marker-start="none" marker-end="none"/>
  <path d="M 121.452,772.526 L 131.549,772.526 L 129.585,759.29 L 142.82,759.29 L 141.324,749.192 L 128.092,749.192 L 126.133,736.002 L 156.978,736.002 L 165.009,790.158 L 110.852,790.158 L 106.275,759.29 L 119.489,759.29 L 121.452,772.526 Z" fill="#ff0000" stroke-linejoin="miter" fill-rule="nonzero" stroke-width="0.25" stroke="none" marker-start="none" marker-end="none"/>
  <rect x="-6.53646747117371" y="-7.63777915777638" width="13.0729349423474" height="15.2755583155528" rx="0.969595128372272" ry="0.969595128372272" transform="matrix(0.989182 -0.146744 0.146744 0.989182 110.408 742.596)" fill="#f41c1c" fill-rule="nonzero" stroke-linejoin="miter" stroke="none" stroke-width="0.25"/>
  <path d="M 67.76,720.985 C 67.943,722.201 67.335,723.502 66.014,723.502 C 64.691,723.502 63.663,722.201 63.479,720.985 C 63.294,719.775 63.88,718.452 65.207,718.452 C 66.528,718.452 67.575,719.775 67.76,720.985 Z M 69.32,716.466 L 66.785,716.466 L 66.915,717.294 L 66.877,717.294 C 66.215,716.578 65.187,716.173 64.251,716.173 C 61.605,716.173 60.484,718.58 60.87,721.025 C 61.255,723.412 63.148,725.782 65.739,725.782 C 66.675,725.782 67.575,725.377 68.072,724.642 L 68.218,725.488 L 70.754,725.488 L 69.32,716.466 Z" fill="#000000" stroke-linejoin="miter" fill-rule="nonzero" stroke-width="0.25" stroke="none" marker-start="none" marker-end="none"/>
  <path d="M 77.807,723.356 C 77.495,723.704 77.072,723.981 76.559,723.981 C 76.135,723.981 75.658,723.651 75.584,723.21 C 75.476,722.55 76.394,722.364 77.238,721.961 C 78.118,721.557 78.93,720.933 78.69,719.372 C 78.377,717.367 76.559,716.173 74.666,716.173 C 73.453,716.173 72.368,716.726 71.726,717.68 L 73.158,719.204 C 73.564,718.654 74.151,718.159 74.904,718.159 C 75.476,718.159 75.989,718.544 76.08,719.134 C 76.209,719.922 75.327,720.105 74.501,720.49 C 73.656,720.877 72.846,721.41 73.068,722.861 C 73.343,724.551 74.703,725.782 76.394,725.782 C 77.347,725.782 78.525,725.488 79.15,724.845 L 77.807,723.356 Z" fill="#000000" stroke-linejoin="miter" fill-rule="nonzero" stroke-width="0.25" stroke="none" marker-start="none" marker-end="none"/>
  <path d="M 87.84,720.985 C 88.022,722.201 87.434,723.502 86.112,723.502 C 84.789,723.502 83.76,722.201 83.577,720.985 C 83.392,719.775 83.979,718.452 85.306,718.452 C 86.626,718.452 87.655,719.775 87.84,720.985 Z M 84.419,724.662 C 85.121,725.359 86.129,725.782 87.085,725.782 C 89.64,725.782 90.834,723.396 90.45,721.025 C 90.063,718.562 88.17,716.173 85.506,716.173 C 84.588,716.173 83.688,716.578 83.285,717.312 L 83.247,717.312 L 82.671,713.25 L 80.099,713.25 L 81.978,725.488 L 84.55,725.488 L 84.419,724.662 Z" fill="#000000" stroke-linejoin="miter" fill-rule="nonzero" stroke-width="0.25" stroke="none" marker-start="none" marker-end="none"/>
  <path d="M 99.138,720.985 C 99.321,722.201 98.733,723.502 97.411,723.502 C 96.088,723.502 95.06,722.201 94.877,720.985 C 94.689,719.775 95.279,718.452 96.6,718.452 C 97.926,718.452 98.954,719.775 99.138,720.985 Z M 93.752,728.73 L 96.325,728.73 L 95.721,724.662 C 96.42,725.359 97.428,725.782 98.386,725.782 C 100.938,725.782 102.13,723.396 101.747,721.025 C 101.359,718.562 99.467,716.173 96.803,716.173 C 95.885,716.173 94.985,716.578 94.582,717.312 L 94.545,717.312 L 94.417,716.466 L 91.843,716.466 L 93.752,728.73 Z" fill="#000000" stroke-linejoin="miter" fill-rule="nonzero" stroke-width="0.25" stroke="none" marker-start="none" marker-end="none"/>
  <path d="M 117.946,721.318 C 118.128,722.531 117.523,723.835 116.201,723.835 C 114.875,723.835 113.849,722.531 113.664,721.318 C 113.481,720.105 114.069,718.783 115.392,718.783 C 116.715,718.783 117.763,720.105 117.946,721.318 Z M 119.506,716.799 L 116.973,716.799 L 117.101,717.624 L 117.063,717.624 C 116.402,716.909 115.371,716.505 114.436,716.505 C 111.789,716.505 110.669,718.911 111.056,721.355 C 111.441,723.742 113.332,726.112 115.923,726.112 C 116.86,726.112 117.763,725.709 118.257,724.975 L 118.406,725.82 L 120.939,725.82 L 119.506,716.799 Z" fill="#000000" stroke-linejoin="miter" fill-rule="nonzero" stroke-width="0.25" stroke="none" marker-start="none" marker-end="none"/>
  <path d="M 127.996,723.689 C 127.681,724.036 127.261,724.312 126.745,724.312 C 126.323,724.312 125.844,723.982 125.772,723.54 C 125.66,722.88 126.58,722.696 127.425,722.291 C 128.307,721.888 129.114,721.263 128.876,719.702 C 128.564,717.7 126.745,716.506 124.852,716.506 C 123.641,716.506 122.557,717.056 121.914,718.012 L 123.347,719.535 C 123.751,718.984 124.338,718.489 125.092,718.489 C 125.66,718.489 126.176,718.874 126.267,719.463 C 126.396,720.252 125.514,720.435 124.689,720.82 C 123.842,721.208 123.034,721.74 123.256,723.191 C 123.527,724.882 124.888,726.112 126.58,726.112 C 127.536,726.112 128.712,725.82 129.337,725.177 L 127.996,723.689 Z" fill="#000000" stroke-linejoin="miter" fill-rule="nonzero" stroke-width="0.25" stroke="none" marker-start="none" marker-end="none"/>
  <path d="M 138.025,721.318 C 138.208,722.531 137.618,723.835 136.299,723.835 C 134.976,723.835 133.947,722.531 133.764,721.318 C 133.578,720.105 134.166,718.783 135.489,718.783 C 136.814,718.783 137.842,720.105 138.025,721.318 Z M 134.609,724.994 C 135.306,725.69 136.317,726.112 137.273,726.112 C 139.826,726.112 141.021,723.724 140.635,721.355 C 140.248,718.894 138.357,716.505 135.691,716.505 C 134.773,716.505 133.872,716.909 133.47,717.645 L 133.431,717.645 L 132.857,713.58 L 130.284,713.58 L 132.163,725.82 L 134.737,725.82 L 134.609,724.994 Z" fill="#000000" stroke-linejoin="miter" fill-rule="nonzero" stroke-width="0.25" stroke="none" marker-start="none" marker-end="none"/>
  <path d="M 145.906,725.009 L 145.943,725.009 C 146.55,725.727 147.486,726.112 148.312,726.112 C 149.435,726.112 150.242,725.652 150.684,724.697 C 151.378,725.579 152.482,726.112 153.529,726.112 C 155.828,726.112 156.118,724.386 155.81,722.421 L 154.928,716.799 L 152.353,716.799 L 153.108,721.54 C 153.236,722.421 153.567,724.056 152.298,724.056 C 150.903,724.056 150.61,722.165 150.461,721.227 L 149.767,716.799 L 147.191,716.799 L 147.909,721.373 C 148.056,722.256 148.46,724.056 147.12,724.056 C 145.686,724.056 145.446,722.179 145.3,721.227 L 144.6,716.799 L 142.029,716.799 L 143.462,725.818 L 146.035,725.818 L 145.906,725.009 Z" fill="#000000" stroke-linejoin="miter" fill-rule="nonzero" stroke-width="0.25" stroke="none" marker-start="none" marker-end="none"/>
 </g>
</svg>
